<?xml version="1.0" encoding="UTF-8"?>
<svg width="280px" height="53px" viewBox="0 0 280 53" version="1.1" xmlns="http://www.w3.org/2000/svg" xmlns:xlink="http://www.w3.org/1999/xlink">
    <!-- Generator: Sketch 50 (54983) - http://www.bohemiancoding.com/sketch -->
    <title>teamlogo_2</title>
    <desc>Created with Sketch.</desc>
    <defs></defs>
    <g id="teamlogo_2" stroke="none" stroke-width="1" fill="none" fill-rule="evenodd">
        <path d="M12.09,0.67 C14.1900105,0.67 16.0999914,1.1399953 17.82,2.08 C19.5400086,3.0200047 20.894995,4.31499175 21.885,5.965 C22.8750049,7.61500825 23.37,9.4499899 23.37,11.47 C23.37,13.4900101 22.8750049,15.3299917 21.885,16.99 C20.894995,18.6500083 19.5400086,19.9549952 17.82,20.905 C16.0999914,21.8550047 14.1900105,22.33 12.09,22.33 C9.9899895,22.33 8.0800086,21.8550047 6.36,20.905 C4.6399914,19.9549952 3.28500495,18.6550083 2.295,17.005 C1.30499505,15.3549918 0.81,13.5100102 0.81,11.47 C0.81,9.4499899 1.30499505,7.61500825 2.295,5.965 C3.28500495,4.31499175 4.63499145,3.0200047 6.345,2.08 C8.05500855,1.1399953 9.9699894,0.67 12.09,0.67 Z M12.15,4.81 C10.9899942,4.81 9.910005,5.10499705 8.91,5.695 C7.909995,6.28500295 7.1200029,7.0899949 6.54,8.11 C5.9599971,9.1300051 5.67,10.2499939 5.67,11.47 C5.67,12.7100062 5.96499705,13.8399949 6.555,14.86 C7.14500295,15.8800051 7.93499505,16.689997 8.925,17.29 C9.91500495,17.890003 10.9899942,18.19 12.15,18.19 C13.3100058,18.19 14.3749951,17.8950029 15.345,17.305 C16.3150048,16.7149971 17.0849972,15.9050052 17.655,14.875 C18.2250028,13.8449948 18.51,12.7100062 18.51,11.47 C18.51,10.2499939 18.2250028,9.1300051 17.655,8.11 C17.0849972,7.0899949 16.3150048,6.28500295 15.345,5.695 C14.3749951,5.10499705 13.3100058,4.81 12.15,4.81 Z M36.27,5.71 C37.7700075,5.71 39.0949942,6.05499655 40.245,6.745 C41.3950057,7.43500345 42.2849968,8.4099937 42.915,9.67 C43.5450031,10.9300063 43.86,12.3799918 43.86,14.02 C43.86,15.6400081 43.5500031,17.0649939 42.93,18.295 C42.3099969,19.5250062 41.4350056,20.4799966 40.305,21.16 C39.1749943,21.8400034 37.8600075,22.18 36.36,22.18 C35.2399944,22.18 34.2450044,21.9650022 33.375,21.535 C32.5049956,21.1049979 31.770003,20.4800041 31.17,19.66 L31.17,27.82 L26.55,27.82 L26.55,5.86 L31.17,5.86 L31.17,8.23 C31.7500029,7.4099959 32.4749956,6.78500215 33.345,6.355 C34.2150044,5.92499785 35.1899946,5.71 36.27,5.71 Z M35.19,18.34 C36.3700059,18.34 37.3299963,17.9250041 38.07,17.095 C38.8100037,16.2649958 39.18,15.1900066 39.18,13.87 C39.18,12.5699935 38.8100037,11.5050042 38.07,10.675 C37.3299963,9.84499585 36.3700059,9.43 35.19,9.43 C34.0099941,9.43 33.0450037,9.84499585 32.295,10.675 C31.5449962,11.5050042 31.17,12.5699935 31.17,13.87 C31.17,15.2100067 31.5449962,16.2899959 32.295,17.11 C33.0450037,17.9300041 34.0099941,18.34 35.19,18.34 Z M53.85,5.71 C56.450013,5.71 58.4249932,6.4599925 59.775,7.96 C61.1250067,9.4600075 61.8,11.5499866 61.8,14.23 C61.8,14.7100024 61.7900001,15.0799987 61.77,15.34 L50.19,15.34 C50.4500013,16.3600051 50.9499963,17.1549971 51.69,17.725 C52.4300037,18.2950028 53.3199948,18.58 54.36,18.58 C55.1200038,18.58 55.8499965,18.4350015 56.55,18.145 C57.2500035,17.8549986 57.8799972,17.4300028 58.44,16.87 L60.87,19.33 C60.0499959,20.2500046 59.0550059,20.9549976 57.885,21.445 C56.7149942,21.9350024 55.4100072,22.18 53.97,22.18 C52.2699915,22.18 50.7850064,21.8400034 49.515,21.16 C48.2449936,20.4799966 47.2650035,19.5200062 46.575,18.28 C45.8849966,17.0399938 45.54,15.6100081 45.54,13.99 C45.54,12.3499918 45.8899965,10.9050062 46.59,9.655 C47.2900035,8.40499375 48.2699937,7.43500345 49.53,6.745 C50.7900063,6.05499655 52.2299919,5.71 53.85,5.71 Z M57.45,12.61 C57.4099998,11.5499947 57.0700032,10.7000032 56.43,10.06 C55.7899968,9.4199968 54.9400053,9.1 53.88,9.1 C52.879995,9.1 52.0450034,9.41499685 51.375,10.045 C50.7049967,10.6750032 50.2800009,11.5299946 50.1,12.61 L57.45,12.61 Z M75.03,5.68 C76.830009,5.68 78.2649946,6.2399944 79.335,7.36 C80.4050053,8.4800056 80.94,9.9799906 80.94,11.86 L80.94,22 L76.32,22 L76.32,13.21 C76.32,12.1899949 76.0350028,11.385003 75.465,10.795 C74.8949971,10.2049971 74.1200049,9.91 73.14,9.91 C71.9999943,9.9300001 71.1000033,10.3249962 70.44,11.095 C69.7799967,11.8650039 69.45,12.849994 69.45,14.05 L69.45,22 L64.83,22 L64.83,5.86 L69.45,5.86 L69.45,8.68 C70.5700056,6.7199902 72.429987,5.7200002 75.03,5.68 Z M106.14,11.41 L110.25,11.41 L110.25,19.57 C109.129994,20.3900041 107.790008,21.0549975 106.23,21.565 C104.669992,22.0750025 103.170007,22.33 101.73,22.33 C99.6299895,22.33 97.7300085,21.8550047 96.03,20.905 C94.3299915,19.9549952 92.9900049,18.6550083 92.01,17.005 C91.0299951,15.3549918 90.54,13.5100102 90.54,11.47 C90.54,9.4499899 91.039995,7.61500825 92.04,5.965 C93.040005,4.31499175 94.4149912,3.0200047 96.165,2.08 C97.9150087,1.1399953 99.8599893,0.67 102,0.67 C103.560008,0.67 105.084993,0.9499972 106.575,1.51 C108.065007,2.0700028 109.349995,2.8299952 110.43,3.79 L107.76,7.18 C106.979996,6.4399963 106.080005,5.8600021 105.06,5.44 C104.039995,5.0199979 103.020005,4.81 102,4.81 C100.779994,4.81 99.665005,5.10499705 98.655,5.695 C97.6449949,6.28500295 96.8500029,7.08499495 96.27,8.095 C95.6899971,9.10500505 95.4,10.2299938 95.4,11.47 C95.4,12.7100062 95.694997,13.8449948 96.285,14.875 C96.8750029,15.9050051 97.6749949,16.7149971 98.685,17.305 C99.695005,17.8950029 100.809994,18.19 102.03,18.19 C102.650003,18.19 103.319996,18.0850011 104.04,17.875 C104.760004,17.6649989 105.459997,17.3800018 106.14,17.02 L106.14,11.41 Z M121.59,5.71 C123.290008,5.71 124.794993,6.0499966 126.105,6.73 C127.415007,7.4100034 128.429996,8.3699938 129.15,9.61 C129.870004,10.8500062 130.23,12.2899918 130.23,13.93 C130.23,15.5500081 129.870004,16.9849938 129.15,18.235 C128.429996,19.4850062 127.415007,20.4549966 126.105,21.145 C124.794993,21.8350035 123.290008,22.18 121.59,22.18 C119.869991,22.18 118.355007,21.8350035 117.045,21.145 C115.734993,20.4549966 114.720004,19.4850062 114,18.235 C113.279996,16.9849938 112.92,15.5500081 112.92,13.93 C112.92,12.2899918 113.279996,10.8500062 114,9.61 C114.720004,8.3699938 115.734993,7.4100034 117.045,6.73 C118.355007,6.0499966 119.869991,5.71 121.59,5.71 Z M121.59,9.55 C120.389994,9.55 119.415004,9.9599959 118.665,10.78 C117.914996,11.6000041 117.54,12.6699934 117.54,13.99 C117.54,15.3100066 117.914996,16.3799959 118.665,17.2 C119.415004,18.0200041 120.389994,18.43 121.59,18.43 C122.770006,18.43 123.734996,18.0200041 124.485,17.2 C125.235004,16.3799959 125.61,15.3100066 125.61,13.99 C125.61,12.6699934 125.235004,11.6000041 124.485,10.78 C123.734996,9.9599959 122.770006,9.55 121.59,9.55 Z M130.98,5.89 L135.75,5.86 L139.56,17.62 L143.34,5.86 L147.93,5.86 L141.84,22 L137.1,22 L130.98,5.89 Z M156.9,5.71 C159.500013,5.71 161.474993,6.4599925 162.825,7.96 C164.175007,9.4600075 164.85,11.5499866 164.85,14.23 C164.85,14.7100024 164.84,15.0799987 164.82,15.34 L153.24,15.34 C153.500001,16.3600051 153.999996,17.1549971 154.74,17.725 C155.480004,18.2950028 156.369995,18.58 157.41,18.58 C158.170004,18.58 158.899997,18.4350015 159.6,18.145 C160.300004,17.8549986 160.929997,17.4300028 161.49,16.87 L163.92,19.33 C163.099996,20.2500046 162.105006,20.9549976 160.935,21.445 C159.764994,21.9350024 158.460007,22.18 157.02,22.18 C155.319992,22.18 153.835006,21.8400034 152.565,21.16 C151.294994,20.4799966 150.315003,19.5200062 149.625,18.28 C148.934997,17.0399938 148.59,15.6100081 148.59,13.99 C148.59,12.3499918 148.939997,10.9050062 149.64,9.655 C150.340003,8.40499375 151.319994,7.43500345 152.58,6.745 C153.840006,6.05499655 155.279992,5.71 156.9,5.71 Z M160.5,12.61 C160.46,11.5499947 160.120003,10.7000032 159.48,10.06 C158.839997,9.4199968 157.990005,9.1 156.93,9.1 C155.929995,9.1 155.095003,9.41499685 154.425,10.045 C153.754997,10.6750032 153.330001,11.5299946 153.15,12.61 L160.5,12.61 Z M172.5,8.77 C173.060003,7.769995 173.789996,7.0100026 174.69,6.49 C175.590004,5.9699974 176.639994,5.7000001 177.84,5.68 L177.84,10.03 C177.679999,10.0099999 177.440002,10 177.12,10 C175.699993,10 174.575004,10.3849962 173.745,11.155 C172.914996,11.9250039 172.5,12.9499936 172.5,14.23 L172.5,22 L167.88,22 L167.88,5.86 L172.5,5.86 L172.5,8.77 Z M190.56,5.68 C192.360009,5.68 193.794995,6.2399944 194.865,7.36 C195.935005,8.4800056 196.47,9.9799906 196.47,11.86 L196.47,22 L191.85,22 L191.85,13.21 C191.85,12.1899949 191.565003,11.385003 190.995,10.795 C190.424997,10.2049971 189.650005,9.91 188.67,9.91 C187.529994,9.9300001 186.630003,10.3249962 185.97,11.095 C185.309997,11.8650039 184.98,12.849994 184.98,14.05 L184.98,22 L180.36,22 L180.36,5.86 L184.98,5.86 L184.98,8.68 C186.100006,6.7199902 187.959987,5.7200002 190.56,5.68 Z M221.82,5.68 C223.600009,5.68 225.014995,6.23499445 226.065,7.345 C227.115005,8.45500555 227.64,9.9599905 227.64,11.86 L227.64,22 L223.05,22 L223.05,13.21 C223.05,12.1699948 222.770003,11.3600029 222.21,10.78 C221.649997,10.1999971 220.890005,9.91 219.93,9.91 C218.829994,9.9300001 217.960003,10.3199962 217.32,11.08 C216.679997,11.8400038 216.36,12.819994 216.36,14.02 L216.36,22 L211.77,22 L211.77,13.21 C211.77,12.1899949 211.495003,11.385003 210.945,10.795 C210.394997,10.2049971 209.640005,9.91 208.68,9.91 C207.579994,9.9300001 206.705003,10.3199962 206.055,11.08 C205.404997,11.8400038 205.08,12.819994 205.08,14.02 L205.08,22 L200.46,22 L200.46,5.86 L205.08,5.86 L205.08,8.65 C206.200006,6.7099903 208.019987,5.7200002 210.54,5.68 C211.900007,5.68 213.049995,6.00499675 213.99,6.655 C214.930005,7.30500325 215.599998,8.2199941 216,9.4 C216.520003,8.1799939 217.274995,7.2600031 218.265,6.64 C219.255005,6.0199969 220.439993,5.7000001 221.82,5.68 Z M238.56,5.71 C241.160013,5.71 243.134993,6.4599925 244.485,7.96 C245.835007,9.4600075 246.51,11.5499866 246.51,14.23 C246.51,14.7100024 246.5,15.0799987 246.48,15.34 L234.9,15.34 C235.160001,16.3600051 235.659996,17.1549971 236.4,17.725 C237.140004,18.2950028 238.029995,18.58 239.07,18.58 C239.830004,18.58 240.559996,18.4350015 241.26,18.145 C241.960003,17.8549986 242.589997,17.4300028 243.15,16.87 L245.58,19.33 C244.759996,20.2500046 243.765006,20.9549976 242.595,21.445 C241.424994,21.9350024 240.120007,22.18 238.68,22.18 C236.979991,22.18 235.495006,21.8400034 234.225,21.16 C232.954994,20.4799966 231.975003,19.5200062 231.285,18.28 C230.594997,17.0399938 230.25,15.6100081 230.25,13.99 C230.25,12.3499918 230.599996,10.9050062 231.3,9.655 C232.000003,8.40499375 232.979994,7.43500345 234.24,6.745 C235.500006,6.05499655 236.939992,5.71 238.56,5.71 Z M242.16,12.61 C242.12,11.5499947 241.780003,10.7000032 241.14,10.06 C240.499997,9.4199968 239.650005,9.1 238.59,9.1 C237.589995,9.1 236.755003,9.41499685 236.085,10.045 C235.414997,10.6750032 234.990001,11.5299946 234.81,12.61 L242.16,12.61 Z M259.74,5.68 C261.540009,5.68 262.974995,6.2399944 264.045,7.36 C265.115005,8.4800056 265.65,9.9799906 265.65,11.86 L265.65,22 L261.03,22 L261.03,13.21 C261.03,12.1899949 260.745003,11.385003 260.175,10.795 C259.604997,10.2049971 258.830005,9.91 257.85,9.91 C256.709994,9.9300001 255.810003,10.3249962 255.15,11.095 C254.489997,11.8650039 254.16,12.849994 254.16,14.05 L254.16,22 L249.54,22 L249.54,5.86 L254.16,5.86 L254.16,8.68 C255.280006,6.7199902 257.139987,5.7200002 259.74,5.68 Z M279.63,21.1 C279.029997,21.4600018 278.365004,21.734999 277.635,21.925 C276.904996,22.115001 276.170004,22.21 275.43,22.21 C273.929992,22.21 272.710005,21.7800043 271.77,20.92 C270.829995,20.0599957 270.36,18.830008 270.36,17.23 L270.36,9.76 L268.11,9.76 L268.11,6.58 L270.36,6.58 L270.36,2.14 L274.95,2.14 L274.95,6.58 L279.33,6.58 L279.33,9.79 L274.95,9.79 L274.95,16.45 C274.95,17.6900062 275.439995,18.31 276.42,18.31 C277.100003,18.31 277.849996,18.110002 278.67,17.71 L279.63,21.1 Z M11.22,31 C13.9000134,31 15.9699927,31.6349936 17.43,32.905 C18.8900073,34.1750064 19.62,35.9699884 19.62,38.29 C19.62,40.7300122 18.8850074,42.6249933 17.415,43.975 C15.9449926,45.3250068 13.8800133,46 11.22,46 L7.05,46 L7.05,52 L2.31,52 L2.31,31 L11.22,31 Z M10.98,42.04 C12.3200067,42.04 13.3449964,41.7350031 14.055,41.125 C14.7650035,40.5149969 15.12,39.6200059 15.12,38.44 C15.12,37.2799942 14.7650035,36.405003 14.055,35.815 C13.3449964,35.224997 12.3200067,34.93 10.98,34.93 L7.05,34.93 L7.05,42.04 L10.98,42.04 Z M27.18,38.77 C27.7400028,37.769995 28.4699955,37.0100026 29.37,36.49 C30.2700045,35.9699974 31.319994,35.7000001 32.52,35.68 L32.52,40.03 C32.3599992,40.0099999 32.1200016,40 31.8,40 C30.3799929,40 29.2550042,40.3849962 28.425,41.155 C27.5949959,41.9250039 27.18,42.9499936 27.18,44.23 L27.18,52 L22.56,52 L22.56,35.86 L27.18,35.86 L27.18,38.77 Z M42.33,35.71 C44.0300085,35.71 45.5349934,36.0499966 46.845,36.73 C48.1550065,37.4100034 49.1699964,38.3699938 49.89,39.61 C50.6100036,40.8500062 50.97,42.2899918 50.97,43.93 C50.97,45.5500081 50.6100036,46.9849938 49.89,48.235 C49.1699964,49.4850062 48.1550065,50.4549966 46.845,51.145 C45.5349934,51.8350035 44.0300085,52.18 42.33,52.18 C40.6099914,52.18 39.0950065,51.8350035 37.785,51.145 C36.4749934,50.4549966 35.4600036,49.4850062 34.74,48.235 C34.0199964,46.9849938 33.66,45.5500081 33.66,43.93 C33.66,42.2899918 34.0199964,40.8500062 34.74,39.61 C35.4600036,38.3699938 36.4749934,37.4100034 37.785,36.73 C39.0950065,36.0499966 40.6099914,35.71 42.33,35.71 Z M42.33,39.55 C41.129994,39.55 40.1550038,39.9599959 39.405,40.78 C38.6549962,41.6000041 38.28,42.6699934 38.28,43.99 C38.28,45.3100066 38.6549962,46.3799959 39.405,47.2 C40.1550038,48.0200041 41.129994,48.43 42.33,48.43 C43.5100059,48.43 44.4749963,48.0200041 45.225,47.2 C45.9750037,46.3799959 46.35,45.3100066 46.35,43.99 C46.35,42.6699934 45.9750037,41.6000041 45.225,40.78 C44.4749963,39.9599959 43.5100059,39.55 42.33,39.55 Z M69.96,29.74 L69.96,52 L65.37,52 L65.37,49.63 C64.7899971,50.4700042 64.0700043,51.1049979 63.21,51.535 C62.3499957,51.9650022 61.3700055,52.18 60.27,52.18 C58.7499924,52.18 57.4150058,51.8350035 56.265,51.145 C55.1149942,50.4549966 54.2250031,49.4800063 53.595,48.22 C52.9649969,46.9599937 52.65,45.5100082 52.65,43.87 C52.65,42.2499919 52.9599969,40.8200062 53.58,39.58 C54.2000031,38.3399938 55.0799943,37.3800034 56.22,36.7 C57.3600057,36.0199966 58.6699926,35.68 60.15,35.68 C62.4300114,35.68 64.169994,36.5299915 65.37,38.23 L65.37,29.74 L69.96,29.74 Z M61.35,48.46 C62.5300059,48.46 63.4949963,48.0450041 64.245,47.215 C64.9950037,46.3849958 65.37,45.3100066 65.37,43.99 C65.37,42.6699934 64.9950037,41.5950042 64.245,40.765 C63.4949963,39.9349958 62.5300059,39.52 61.35,39.52 C60.149994,39.52 59.1750038,39.9349958 58.425,40.765 C57.6749963,41.5950042 57.2900001,42.6699934 57.27,43.99 C57.2900001,45.3100066 57.6749963,46.3849958 58.425,47.215 C59.1750038,48.0450041 60.149994,48.46 61.35,48.46 Z M89.91,35.86 L89.91,52 L85.32,52 L85.32,49.15 C84.2199945,51.1700101 82.4200125,52.18 79.92,52.18 C78.1399911,52.18 76.7250052,51.6250055 75.675,50.515 C74.6249947,49.4049945 74.1,47.9000095 74.1,46 L74.1,35.86 L78.72,35.86 L78.72,44.68 C78.72,45.7000051 78.9899973,46.4999971 79.53,47.08 C80.0700027,47.6600029 80.8099953,47.95 81.75,47.95 C82.8500055,47.9299999 83.7199968,47.5400038 84.36,46.78 C85.0000032,46.0199962 85.32,45.040006 85.32,43.84 L85.32,35.86 L89.91,35.86 Z M105.15,41.35 C104.229995,40.2099943 103.030007,39.64 101.55,39.64 C100.389994,39.64 99.4450036,40.0349961 98.715,40.825 C97.9849963,41.615004 97.62,42.6599935 97.62,43.96 C97.62,45.2600065 97.9799964,46.3149959 98.7,47.125 C99.4200036,47.9350041 100.339994,48.34 101.46,48.34 C103.140008,48.34 104.389996,47.7100063 105.21,46.45 L108.39,48.61 C107.709997,49.7500057 106.755006,50.6299969 105.525,51.25 C104.294994,51.8700031 102.860008,52.18 101.22,52.18 C99.5999919,52.18 98.1700062,51.8400034 96.93,51.16 C95.6899938,50.4799966 94.7250035,49.5200062 94.035,48.28 C93.3449965,47.0399938 93,45.6100081 93,43.99 C93,42.3499918 93.3449965,40.9050062 94.035,39.655 C94.7250035,38.4049938 95.6949937,37.4350034 96.945,36.745 C98.1950062,36.0549965 99.6399918,35.71 101.28,35.71 C102.820008,35.71 104.189994,36.0049971 105.39,36.595 C106.590006,37.1850029 107.549996,38.0199946 108.27,39.1 L105.15,41.35 Z M121.26,51.1 C120.659997,51.4600018 119.995004,51.734999 119.265,51.925 C118.534996,52.1150009 117.800004,52.21 117.06,52.21 C115.559993,52.21 114.340005,51.7800043 113.4,50.92 C112.459995,50.0599957 111.99,48.830008 111.99,47.23 L111.99,39.76 L109.74,39.76 L109.74,36.58 L111.99,36.58 L111.99,32.14 L116.58,32.14 L116.58,36.58 L120.96,36.58 L120.96,39.79 L116.58,39.79 L116.58,46.45 C116.58,47.6900062 117.069995,48.31 118.05,48.31 C118.730003,48.31 119.479996,48.110002 120.3,47.71 L121.26,51.1 Z M134.22,40.6 C133.339996,40.0999975 132.470004,39.7150014 131.61,39.445 C130.749996,39.1749986 129.980003,39.04 129.3,39.04 C128.739997,39.04 128.290002,39.139999 127.95,39.34 C127.609998,39.540001 127.44,39.839998 127.44,40.24 C127.44,40.6800022 127.669998,41.0199988 128.13,41.26 C128.590002,41.5000012 129.339995,41.7699985 130.38,42.07 C131.520006,42.4100017 132.459996,42.7449984 133.2,43.075 C133.940004,43.4050017 134.579997,43.8949967 135.12,44.545 C135.660003,45.1950032 135.93,46.0499947 135.93,47.11 C135.93,48.710008 135.315006,49.9549955 134.085,50.845 C132.854994,51.7350044 131.28001,52.18 129.36,52.18 C128.039993,52.18 126.770006,51.9850019 125.55,51.595 C124.329994,51.2049981 123.270004,50.6500036 122.37,49.93 L123.87,46.81 C124.690004,47.4500032 125.604995,47.9449982 126.615,48.295 C127.625005,48.6450017 128.579995,48.82 129.48,48.82 C130.100003,48.82 130.594998,48.715001 130.965,48.505 C131.335002,48.294999 131.52,47.9800021 131.52,47.56 C131.52,47.0999977 131.285002,46.7400013 130.815,46.48 C130.344998,46.2199987 129.590005,45.9400015 128.55,45.64 C127.449995,45.3199984 126.535004,45.0000016 125.805,44.68 C125.074996,44.3599984 124.450003,43.8750032 123.93,43.225 C123.409997,42.5749967 123.15,41.7300052 123.15,40.69 C123.15,39.089992 123.749994,37.8500044 124.95,36.97 C126.150006,36.0899956 127.669991,35.65 129.51,35.65 C130.610005,35.65 131.709994,35.8049984 132.81,36.115 C133.910006,36.4250015 134.909996,36.8699971 135.81,37.45 L134.22,40.6 Z" id="Open-Government-Prod" fill="#393939"></path>
    </g>
</svg>