<?xml version="1.0" encoding="UTF-8"?>
<svg width="190px" height="83px" viewBox="0 0 190 83" version="1.1" xmlns="http://www.w3.org/2000/svg" xmlns:xlink="http://www.w3.org/1999/xlink">
    <!-- Generator: Sketch 50 (54983) - http://www.bohemiancoding.com/sketch -->
    <title>teamlogo_1</title>
    <desc>Created with Sketch.</desc>
    <defs></defs>
    <g id="teamlogo_1" stroke="none" stroke-width="1" fill="none" fill-rule="evenodd">
        <path d="M12.09,0.67 C14.1900105,0.67 16.0999914,1.1399953 17.82,2.08 C19.5400086,3.0200047 20.894995,4.31499175 21.885,5.965 C22.8750049,7.61500825 23.37,9.4499899 23.37,11.47 C23.37,13.4900101 22.8750049,15.3299917 21.885,16.99 C20.894995,18.6500083 19.5400086,19.9549952 17.82,20.905 C16.0999914,21.8550048 14.1900105,22.33 12.09,22.33 C9.9899895,22.33 8.0800086,21.8550048 6.36,20.905 C4.6399914,19.9549952 3.28500495,18.6550083 2.295,17.005 C1.30499505,15.3549918 0.81,13.5100102 0.81,11.47 C0.81,9.4499899 1.30499505,7.61500825 2.295,5.965 C3.28500495,4.31499175 4.63499145,3.0200047 6.345,2.08 C8.05500855,1.1399953 9.9699894,0.67 12.09,0.67 Z M12.15,4.81 C10.9899942,4.81 9.910005,5.10499705 8.91,5.695 C7.909995,6.28500295 7.1200029,7.0899949 6.54,8.11 C5.9599971,9.1300051 5.67,10.2499939 5.67,11.47 C5.67,12.7100062 5.96499705,13.8399949 6.555,14.86 C7.14500295,15.8800051 7.93499505,16.689997 8.925,17.29 C9.91500495,17.890003 10.9899942,18.19 12.15,18.19 C13.3100058,18.19 14.3749951,17.895003 15.345,17.305 C16.3150048,16.7149971 17.0849972,15.9050052 17.655,14.875 C18.2250028,13.8449949 18.51,12.7100062 18.51,11.47 C18.51,10.2499939 18.2250028,9.1300051 17.655,8.11 C17.0849972,7.0899949 16.3150048,6.28500295 15.345,5.695 C14.3749951,5.10499705 13.3100058,4.81 12.15,4.81 Z M36.27,5.71 C37.7700075,5.71 39.0949942,6.05499655 40.245,6.745 C41.3950057,7.43500345 42.2849968,8.4099937 42.915,9.67 C43.5450031,10.9300063 43.86,12.3799918 43.86,14.02 C43.86,15.6400081 43.5500031,17.0649939 42.93,18.295 C42.3099969,19.5250061 41.4350056,20.4799966 40.305,21.16 C39.1749943,21.8400034 37.8600075,22.18 36.36,22.18 C35.2399944,22.18 34.2450044,21.9650022 33.375,21.535 C32.5049956,21.1049978 31.770003,20.4800041 31.17,19.66 L31.17,27.82 L26.55,27.82 L26.55,5.86 L31.17,5.86 L31.17,8.23 C31.7500029,7.4099959 32.4749956,6.78500215 33.345,6.355 C34.2150044,5.92499785 35.1899946,5.71 36.27,5.71 Z M35.19,18.34 C36.3700059,18.34 37.3299963,17.9250042 38.07,17.095 C38.8100037,16.2649958 39.18,15.1900066 39.18,13.87 C39.18,12.5699935 38.8100037,11.5050041 38.07,10.675 C37.3299963,9.84499585 36.3700059,9.43 35.19,9.43 C34.0099941,9.43 33.0450037,9.84499585 32.295,10.675 C31.5449962,11.5050041 31.17,12.5699935 31.17,13.87 C31.17,15.2100067 31.5449962,16.2899959 32.295,17.11 C33.0450037,17.9300041 34.0099941,18.34 35.19,18.34 Z M53.85,5.71 C56.450013,5.71 58.4249932,6.4599925 59.775,7.96 C61.1250067,9.4600075 61.8,11.5499866 61.8,14.23 C61.8,14.7100024 61.7900001,15.0799987 61.77,15.34 L50.19,15.34 C50.4500013,16.3600051 50.9499963,17.1549971 51.69,17.725 C52.4300037,18.2950029 53.3199948,18.58 54.36,18.58 C55.1200038,18.58 55.8499965,18.4350015 56.55,18.145 C57.2500035,17.8549985 57.8799972,17.4300028 58.44,16.87 L60.87,19.33 C60.0499959,20.2500046 59.0550059,20.9549975 57.885,21.445 C56.7149942,21.9350024 55.4100072,22.18 53.97,22.18 C52.2699915,22.18 50.7850064,21.8400034 49.515,21.16 C48.2449936,20.4799966 47.2650035,19.5200062 46.575,18.28 C45.8849966,17.0399938 45.54,15.6100081 45.54,13.99 C45.54,12.3499918 45.8899965,10.9050062 46.59,9.655 C47.2900035,8.40499375 48.2699937,7.43500345 49.53,6.745 C50.7900063,6.05499655 52.2299919,5.71 53.85,5.71 Z M57.45,12.61 C57.4099998,11.5499947 57.0700032,10.7000032 56.43,10.06 C55.7899968,9.4199968 54.9400053,9.1 53.88,9.1 C52.879995,9.1 52.0450034,9.41499685 51.375,10.045 C50.7049967,10.6750031 50.2800009,11.5299946 50.1,12.61 L57.45,12.61 Z M75.03,5.68 C76.830009,5.68 78.2649946,6.2399944 79.335,7.36 C80.4050053,8.4800056 80.94,9.9799906 80.94,11.86 L80.94,22 L76.32,22 L76.32,13.21 C76.32,12.1899949 76.0350028,11.385003 75.465,10.795 C74.8949971,10.2049971 74.1200049,9.91 73.14,9.91 C71.9999943,9.9300001 71.1000033,10.3249962 70.44,11.095 C69.7799967,11.8650038 69.45,12.849994 69.45,14.05 L69.45,22 L64.83,22 L64.83,5.86 L69.45,5.86 L69.45,8.68 C70.5700056,6.7199902 72.429987,5.7200002 75.03,5.68 Z M16.41,41.41 L20.52,41.41 L20.52,49.57 C19.3999944,50.3900041 18.0600078,51.0549975 16.5,51.565 C14.9399922,52.0750025 13.4400072,52.33 12,52.33 C9.8999895,52.33 8.0000085,51.8550047 6.3,50.905 C4.5999915,49.9549952 3.2600049,48.6550083 2.28,47.005 C1.2999951,45.3549918 0.81,43.5100102 0.81,41.47 C0.81,39.4499899 1.309995,37.6150083 2.31,35.965 C3.310005,34.3149918 4.68499125,33.0200047 6.435,32.08 C8.18500875,31.1399953 10.1299893,30.67 12.27,30.67 C13.8300078,30.67 15.3549925,30.9499972 16.845,31.51 C18.3350074,32.0700028 19.6199946,32.8299952 20.7,33.79 L18.03,37.18 C17.2499961,36.4399963 16.3500051,35.8600021 15.33,35.44 C14.3099949,35.0199979 13.2900051,34.81 12.27,34.81 C11.0499939,34.81 9.93500505,35.1049971 8.925,35.695 C7.91499495,36.2850029 7.1200029,37.0849949 6.54,38.095 C5.9599971,39.1050051 5.67,40.2299938 5.67,41.47 C5.67,42.7100062 5.96499705,43.8449948 6.555,44.875 C7.14500295,45.9050052 7.94499495,46.7149971 8.955,47.305 C9.96500505,47.8950029 11.0799939,48.19 12.3,48.19 C12.9200031,48.19 13.5899964,48.0850011 14.31,47.875 C15.0300036,47.6649989 15.7299966,47.3800018 16.41,47.02 L16.41,41.41 Z M31.86,35.71 C33.5600085,35.71 35.0649935,36.0499966 36.375,36.73 C37.6850065,37.4100034 38.6999964,38.3699938 39.42,39.61 C40.1400036,40.8500062 40.5,42.2899918 40.5,43.93 C40.5,45.5500081 40.1400036,46.9849938 39.42,48.235 C38.6999964,49.4850062 37.6850065,50.4549966 36.375,51.145 C35.0649935,51.8350035 33.5600085,52.18 31.86,52.18 C30.1399914,52.18 28.6250065,51.8350035 27.315,51.145 C26.0049934,50.4549966 24.9900036,49.4850062 24.27,48.235 C23.5499964,46.9849938 23.19,45.5500081 23.19,43.93 C23.19,42.2899918 23.5499964,40.8500062 24.27,39.61 C24.9900036,38.3699938 26.0049934,37.4100034 27.315,36.73 C28.6250065,36.0499966 30.1399914,35.71 31.86,35.71 Z M31.86,39.55 C30.659994,39.55 29.6850037,39.9599959 28.935,40.78 C28.1849962,41.6000041 27.81,42.6699934 27.81,43.99 C27.81,45.3100066 28.1849962,46.3799959 28.935,47.2 C29.6850037,48.0200041 30.659994,48.43 31.86,48.43 C33.0400059,48.43 34.0049962,48.0200041 34.755,47.2 C35.5050037,46.3799959 35.88,45.3100066 35.88,43.99 C35.88,42.6699934 35.5050037,41.6000041 34.755,40.78 C34.0049962,39.9599959 33.0400059,39.55 31.86,39.55 Z M41.25,35.89 L46.02,35.86 L49.83,47.62 L53.61,35.86 L58.2,35.86 L52.11,52 L47.37,52 L41.25,35.89 Z M67.17,35.71 C69.770013,35.71 71.7449932,36.4599925 73.095,37.96 C74.4450067,39.4600075 75.12,41.5499866 75.12,44.23 C75.12,44.7100024 75.1100001,45.0799987 75.09,45.34 L63.51,45.34 C63.7700013,46.3600051 64.2699963,47.1549971 65.01,47.725 C65.7500037,48.2950028 66.6399948,48.58 67.68,48.58 C68.4400038,48.58 69.1699965,48.4350015 69.87,48.145 C70.5700035,47.8549986 71.1999972,47.4300028 71.76,46.87 L74.19,49.33 C73.3699959,50.2500046 72.3750058,50.9549976 71.205,51.445 C70.0349941,51.9350024 68.7300072,52.18 67.29,52.18 C65.5899915,52.18 64.1050063,51.8400034 62.835,51.16 C61.5649936,50.4799966 60.5850035,49.5200062 59.895,48.28 C59.2049966,47.0399938 58.86,45.6100081 58.86,43.99 C58.86,42.3499918 59.2099965,40.9050062 59.91,39.655 C60.6100035,38.4049938 61.5899937,37.4350034 62.85,36.745 C64.1100063,36.0549965 65.5499919,35.71 67.17,35.71 Z M70.77,42.61 C70.7299998,41.5499947 70.3900032,40.7000032 69.75,40.06 C69.1099968,39.4199968 68.2600053,39.1 67.2,39.1 C66.199995,39.1 65.3650033,39.4149969 64.695,40.045 C64.0249966,40.6750032 63.6000009,41.5299946 63.42,42.61 L70.77,42.61 Z M82.77,38.77 C83.3300028,37.769995 84.0599955,37.0100026 84.96,36.49 C85.8600045,35.9699974 86.909994,35.7000001 88.11,35.68 L88.11,40.03 C87.9499992,40.0099999 87.7100016,40 87.39,40 C85.9699929,40 84.8450042,40.3849962 84.015,41.155 C83.1849959,41.9250039 82.77,42.9499936 82.77,44.23 L82.77,52 L78.15,52 L78.15,35.86 L82.77,35.86 L82.77,38.77 Z M100.83,35.68 C102.630009,35.68 104.064995,36.2399944 105.135,37.36 C106.205005,38.4800056 106.74,39.9799906 106.74,41.86 L106.74,52 L102.12,52 L102.12,43.21 C102.12,42.1899949 101.835003,41.385003 101.265,40.795 C100.694997,40.2049971 99.9200049,39.91 98.94,39.91 C97.7999943,39.9300001 96.9000033,40.3249962 96.24,41.095 C95.5799967,41.8650039 95.25,42.849994 95.25,44.05 L95.25,52 L90.63,52 L90.63,35.86 L95.25,35.86 L95.25,38.68 C96.3700056,36.7199902 98.229987,35.7200002 100.83,35.68 Z M132.09,35.68 C133.870009,35.68 135.284995,36.2349945 136.335,37.345 C137.385005,38.4550056 137.91,39.9599905 137.91,41.86 L137.91,52 L133.32,52 L133.32,43.21 C133.32,42.1699948 133.040003,41.3600029 132.48,40.78 C131.919997,40.1999971 131.160005,39.91 130.2,39.91 C129.099994,39.9300001 128.230003,40.3199962 127.59,41.08 C126.949997,41.8400038 126.63,42.819994 126.63,44.02 L126.63,52 L122.04,52 L122.04,43.21 C122.04,42.1899949 121.765003,41.385003 121.215,40.795 C120.664997,40.2049971 119.910005,39.91 118.95,39.91 C117.849994,39.9300001 116.975003,40.3199962 116.325,41.08 C115.674997,41.8400038 115.35,42.819994 115.35,44.02 L115.35,52 L110.73,52 L110.73,35.86 L115.35,35.86 L115.35,38.65 C116.470006,36.7099903 118.289987,35.7200002 120.81,35.68 C122.170007,35.68 123.319995,36.0049968 124.26,36.655 C125.200005,37.3050033 125.869998,38.2199941 126.27,39.4 C126.790003,38.1799939 127.544995,37.2600031 128.535,36.64 C129.525005,36.0199969 130.709993,35.7000001 132.09,35.68 Z M148.83,35.71 C151.430013,35.71 153.404993,36.4599925 154.755,37.96 C156.105007,39.4600075 156.78,41.5499866 156.78,44.23 C156.78,44.7100024 156.77,45.0799987 156.75,45.34 L145.17,45.34 C145.430001,46.3600051 145.929996,47.1549971 146.67,47.725 C147.410004,48.2950028 148.299995,48.58 149.34,48.58 C150.100004,48.58 150.829996,48.4350015 151.53,48.145 C152.230003,47.8549986 152.859997,47.4300028 153.42,46.87 L155.85,49.33 C155.029996,50.2500046 154.035006,50.9549976 152.865,51.445 C151.694994,51.9350024 150.390007,52.18 148.95,52.18 C147.249991,52.18 145.765006,51.8400034 144.495,51.16 C143.224994,50.4799966 142.245003,49.5200062 141.555,48.28 C140.864997,47.0399938 140.52,45.6100081 140.52,43.99 C140.52,42.3499918 140.869996,40.9050062 141.57,39.655 C142.270003,38.4049938 143.249994,37.4350034 144.51,36.745 C145.770006,36.0549965 147.209992,35.71 148.83,35.71 Z M152.43,42.61 C152.39,41.5499947 152.050003,40.7000032 151.41,40.06 C150.769997,39.4199968 149.920005,39.1 148.86,39.1 C147.859995,39.1 147.025003,39.4149969 146.355,40.045 C145.684997,40.6750032 145.260001,41.5299946 145.08,42.61 L152.43,42.61 Z M170.01,35.68 C171.810009,35.68 173.244995,36.2399944 174.315,37.36 C175.385005,38.4800056 175.92,39.9799906 175.92,41.86 L175.92,52 L171.3,52 L171.3,43.21 C171.3,42.1899949 171.015003,41.385003 170.445,40.795 C169.874997,40.2049971 169.100005,39.91 168.12,39.91 C166.979994,39.9300001 166.080003,40.3249962 165.42,41.095 C164.759997,41.8650039 164.43,42.849994 164.43,44.05 L164.43,52 L159.81,52 L159.81,35.86 L164.43,35.86 L164.43,38.68 C165.550006,36.7199902 167.409987,35.7200002 170.01,35.68 Z M189.9,51.1 C189.299997,51.4600018 188.635004,51.734999 187.905,51.925 C187.174996,52.1150009 186.440004,52.21 185.7,52.21 C184.199992,52.21 182.980005,51.7800043 182.04,50.92 C181.099995,50.0599957 180.63,48.830008 180.63,47.23 L180.63,39.76 L178.38,39.76 L178.38,36.58 L180.63,36.58 L180.63,32.14 L185.22,32.14 L185.22,36.58 L189.6,36.58 L189.6,39.79 L185.22,39.79 L185.22,46.45 C185.22,47.6900062 185.709995,48.31 186.69,48.31 C187.370003,48.31 188.119996,48.110002 188.94,47.71 L189.9,51.1 Z M11.22,61 C13.9000134,61 15.9699927,61.6349936 17.43,62.905 C18.8900073,64.1750064 19.62,65.9699884 19.62,68.29 C19.62,70.7300122 18.8850074,72.6249933 17.415,73.975 C15.9449926,75.3250068 13.8800133,76 11.22,76 L7.05,76 L7.05,82 L2.31,82 L2.31,61 L11.22,61 Z M10.98,72.04 C12.3200067,72.04 13.3449964,71.735003 14.055,71.125 C14.7650035,70.5149969 15.12,69.6200059 15.12,68.44 C15.12,67.2799942 14.7650035,66.4050029 14.055,65.815 C13.3449964,65.224997 12.3200067,64.93 10.98,64.93 L7.05,64.93 L7.05,72.04 L10.98,72.04 Z M27.18,68.77 C27.7400028,67.769995 28.4699955,67.0100026 29.37,66.49 C30.2700045,65.9699974 31.319994,65.7000001 32.52,65.68 L32.52,70.03 C32.3599992,70.0099999 32.1200016,70 31.8,70 C30.3799929,70 29.2550042,70.3849962 28.425,71.155 C27.5949959,71.9250038 27.18,72.9499936 27.18,74.23 L27.18,82 L22.56,82 L22.56,65.86 L27.18,65.86 L27.18,68.77 Z M42.33,65.71 C44.0300085,65.71 45.5349934,66.0499966 46.845,66.73 C48.1550065,67.4100034 49.1699964,68.3699938 49.89,69.61 C50.6100036,70.8500062 50.97,72.2899918 50.97,73.93 C50.97,75.5500081 50.6100036,76.9849938 49.89,78.235 C49.1699964,79.4850062 48.1550065,80.4549966 46.845,81.145 C45.5349934,81.8350035 44.0300085,82.18 42.33,82.18 C40.6099914,82.18 39.0950065,81.8350035 37.785,81.145 C36.4749934,80.4549966 35.4600036,79.4850062 34.74,78.235 C34.0199964,76.9849938 33.66,75.5500081 33.66,73.93 C33.66,72.2899918 34.0199964,70.8500062 34.74,69.61 C35.4600036,68.3699938 36.4749934,67.4100034 37.785,66.73 C39.0950065,66.0499966 40.6099914,65.71 42.33,65.71 Z M42.33,69.55 C41.129994,69.55 40.1550038,69.9599959 39.405,70.78 C38.6549962,71.6000041 38.28,72.6699934 38.28,73.99 C38.28,75.3100066 38.6549962,76.3799959 39.405,77.2 C40.1550038,78.0200041 41.129994,78.43 42.33,78.43 C43.5100059,78.43 44.4749963,78.0200041 45.225,77.2 C45.9750037,76.3799959 46.35,75.3100066 46.35,73.99 C46.35,72.6699934 45.9750037,71.6000041 45.225,70.78 C44.4749963,69.9599959 43.5100059,69.55 42.33,69.55 Z M69.96,59.74 L69.96,82 L65.37,82 L65.37,79.63 C64.7899971,80.4700042 64.0700043,81.1049979 63.21,81.535 C62.3499957,81.9650022 61.3700055,82.18 60.27,82.18 C58.7499924,82.18 57.4150058,81.8350035 56.265,81.145 C55.1149942,80.4549966 54.2250031,79.4800063 53.595,78.22 C52.9649969,76.9599937 52.65,75.5100082 52.65,73.87 C52.65,72.2499919 52.9599969,70.8200062 53.58,69.58 C54.2000031,68.3399938 55.0799943,67.3800034 56.22,66.7 C57.3600057,66.0199966 58.6699926,65.68 60.15,65.68 C62.4300114,65.68 64.169994,66.5299915 65.37,68.23 L65.37,59.74 L69.96,59.74 Z M61.35,78.46 C62.5300059,78.46 63.4949963,78.0450041 64.245,77.215 C64.9950037,76.3849958 65.37,75.3100066 65.37,73.99 C65.37,72.6699934 64.9950037,71.5950041 64.245,70.765 C63.4949963,69.9349959 62.5300059,69.52 61.35,69.52 C60.149994,69.52 59.1750038,69.9349959 58.425,70.765 C57.6749963,71.5950041 57.2900001,72.6699934 57.27,73.99 C57.2900001,75.3100066 57.6749963,76.3849958 58.425,77.215 C59.1750038,78.0450041 60.149994,78.46 61.35,78.46 Z M89.91,65.86 L89.91,82 L85.32,82 L85.32,79.15 C84.2199945,81.1700101 82.4200125,82.18 79.92,82.18 C78.1399911,82.18 76.7250052,81.6250055 75.675,80.515 C74.6249947,79.4049945 74.1,77.9000095 74.1,76 L74.1,65.86 L78.72,65.86 L78.72,74.68 C78.72,75.7000051 78.9899973,76.4999971 79.53,77.08 C80.0700027,77.6600029 80.8099953,77.95 81.75,77.95 C82.8500055,77.9299999 83.7199968,77.5400038 84.36,76.78 C85.0000032,76.0199962 85.32,75.040006 85.32,73.84 L85.32,65.86 L89.91,65.86 Z M105.15,71.35 C104.229995,70.2099943 103.030007,69.64 101.55,69.64 C100.389994,69.64 99.4450036,70.0349961 98.715,70.825 C97.9849963,71.615004 97.62,72.6599935 97.62,73.96 C97.62,75.2600065 97.9799964,76.3149959 98.7,77.125 C99.4200036,77.9350041 100.339994,78.34 101.46,78.34 C103.140008,78.34 104.389996,77.7100063 105.21,76.45 L108.39,78.61 C107.709997,79.7500057 106.755006,80.6299969 105.525,81.25 C104.294994,81.8700031 102.860008,82.18 101.22,82.18 C99.5999919,82.18 98.1700062,81.8400034 96.93,81.16 C95.6899938,80.4799966 94.7250035,79.5200062 94.035,78.28 C93.3449965,77.0399938 93,75.6100081 93,73.99 C93,72.3499918 93.3449965,70.9050062 94.035,69.655 C94.7250035,68.4049938 95.6949937,67.4350034 96.945,66.745 C98.1950062,66.0549965 99.6399918,65.71 101.28,65.71 C102.820008,65.71 104.189994,66.0049971 105.39,66.595 C106.590006,67.1850029 107.549996,68.0199946 108.27,69.1 L105.15,71.35 Z M121.26,81.1 C120.659997,81.4600018 119.995004,81.734999 119.265,81.925 C118.534996,82.1150009 117.800004,82.21 117.06,82.21 C115.559993,82.21 114.340005,81.7800043 113.4,80.92 C112.459995,80.0599957 111.99,78.830008 111.99,77.23 L111.99,69.76 L109.74,69.76 L109.74,66.58 L111.99,66.58 L111.99,62.14 L116.58,62.14 L116.58,66.58 L120.96,66.58 L120.96,69.79 L116.58,69.79 L116.58,76.45 C116.58,77.6900062 117.069995,78.31 118.05,78.31 C118.730003,78.31 119.479996,78.110002 120.3,77.71 L121.26,81.1 Z M134.22,70.6 C133.339996,70.0999975 132.470004,69.7150013 131.61,69.445 C130.749996,69.1749986 129.980003,69.04 129.3,69.04 C128.739997,69.04 128.290002,69.139999 127.95,69.34 C127.609998,69.540001 127.44,69.839998 127.44,70.24 C127.44,70.6800022 127.669998,71.0199988 128.13,71.26 C128.590002,71.5000012 129.339995,71.7699985 130.38,72.07 C131.520006,72.4100017 132.459996,72.7449984 133.2,73.075 C133.940004,73.4050017 134.579997,73.8949968 135.12,74.545 C135.660003,75.1950032 135.93,76.0499947 135.93,77.11 C135.93,78.710008 135.315006,79.9549956 134.085,80.845 C132.854994,81.7350045 131.28001,82.18 129.36,82.18 C128.039993,82.18 126.770006,81.9850019 125.55,81.595 C124.329994,81.2049981 123.270004,80.6500036 122.37,79.93 L123.87,76.81 C124.690004,77.4500032 125.604995,77.9449982 126.615,78.295 C127.625005,78.6450018 128.579995,78.82 129.48,78.82 C130.100003,78.82 130.594998,78.715001 130.965,78.505 C131.335002,78.294999 131.52,77.9800021 131.52,77.56 C131.52,77.0999977 131.285002,76.7400013 130.815,76.48 C130.344998,76.2199987 129.590005,75.9400015 128.55,75.64 C127.449995,75.3199984 126.535004,75.0000016 125.805,74.68 C125.074996,74.3599984 124.450003,73.8750032 123.93,73.225 C123.409997,72.5749967 123.15,71.7300052 123.15,70.69 C123.15,69.089992 123.749994,67.8500044 124.95,66.97 C126.150006,66.0899956 127.669991,65.65 129.51,65.65 C130.610005,65.65 131.709994,65.8049984 132.81,66.115 C133.910006,66.4250015 134.909996,66.8699971 135.81,67.45 L134.22,70.6 Z" id="Open-Government-Prod" fill="#393939"></path>
    </g>
</svg>