<?xml version="1.0" encoding="UTF-8"?>
<svg width="250px" height="60px" viewBox="0 0 250 60" version="1.1" xmlns="http://www.w3.org/2000/svg" xmlns:xlink="http://www.w3.org/1999/xlink">
    <!-- Generator: Sketch 50 (54983) - http://www.bohemiancoding.com/sketch -->
    <title>teamlogo_2</title>
    <desc>Created with Sketch.</desc>
    <defs></defs>
    <g id="teamlogo_2" stroke="none" stroke-width="1" fill="none" fill-rule="evenodd">
        <path d="M14.26,26.36 C12.9399934,26.36 11.7350054,26.1250024 10.645,25.655 C9.55499455,25.1849976 8.6200039,24.5100044 7.84,23.63 C7.0599961,22.7499956 6.45500215,21.6800063 6.025,20.42 C5.59499785,19.1599937 5.38,17.730008 5.38,16.13 C5.38,14.529992 5.59499785,13.1050063 6.025,11.855 C6.45500215,10.6049938 7.0599961,9.55500425 7.84,8.705 C8.6200039,7.85499575 9.55499455,7.20500225 10.645,6.755 C11.7350054,6.30499775 12.9399934,6.08 14.26,6.08 C15.5800066,6.08 16.7849946,6.30499775 17.875,6.755 C18.9650055,7.20500225 19.8999961,7.8599957 20.68,8.72 C21.4600039,9.5800043 22.0649978,10.6349937 22.495,11.885 C22.9250022,13.1350063 23.14,14.5499921 23.14,16.13 C23.14,17.730008 22.9250022,19.1599937 22.495,20.42 C22.0649978,21.6800063 21.4600039,22.7499956 20.68,23.63 C19.8999961,24.5100044 18.9650055,25.1849976 17.875,25.655 C16.7849946,26.1250024 15.5800066,26.36 14.26,26.36 Z M14.26,22.55 C15.6000067,22.55 16.6599961,21.9750057 17.44,20.825 C18.2200039,19.6749943 18.61,18.1100099 18.61,16.13 C18.61,14.1699902 18.2200039,12.6400055 17.44,11.54 C16.6599961,10.4399945 15.6000067,9.89 14.26,9.89 C12.9199933,9.89 11.8600039,10.4399945 11.08,11.54 C10.2999961,12.6400055 9.91,14.1699902 9.91,16.13 C9.91,18.1100099 10.2999961,19.6749943 11.08,20.825 C11.8600039,21.9750057 12.9199933,22.55 14.26,22.55 Z M26.47,31.52 L26.47,11.12 L30.07,11.12 L30.37,12.59 L30.49,12.59 C31.0700029,12.0699974 31.7249963,11.6350018 32.455,11.285 C33.1850037,10.9349982 33.9399961,10.76 34.72,10.76 C35.6200045,10.76 36.4299964,10.9399982 37.15,11.3 C37.8700036,11.6600018 38.4799975,12.1699967 38.98,12.83 C39.4800025,13.4900033 39.8649986,14.2849954 40.135,15.215 C40.4050013,16.1450047 40.54,17.1799943 40.54,18.32 C40.54,19.6000064 40.3650017,20.7349951 40.015,21.725 C39.6649983,22.715005 39.1950029,23.5549965 38.605,24.245 C38.014997,24.9350034 37.3450038,25.4599982 36.595,25.82 C35.8449963,26.1800018 35.070004,26.36 34.27,26.36 C33.6299968,26.36 33.010003,26.2250013 32.41,25.955 C31.809997,25.6849986 31.2500026,25.3000025 30.73,24.8 L30.88,27.17 L30.88,31.52 L26.47,31.52 Z M33.25,22.76 C34.0100038,22.76 34.6599973,22.4150035 35.2,21.725 C35.7400027,21.0349966 36.01,19.9200077 36.01,18.38 C36.01,15.6999866 35.1500086,14.36 33.43,14.36 C32.5699957,14.36 31.7200042,14.8099955 30.88,15.71 L30.88,21.8 C31.280002,22.1600018 31.679998,22.4099993 32.08,22.55 C32.480002,22.6900007 32.8699981,22.76 33.25,22.76 Z M50.32,26.36 C49.2599947,26.36 48.2700046,26.1850017 47.35,25.835 C46.4299954,25.4849983 45.6300034,24.9750034 44.95,24.305 C44.2699966,23.6349966 43.7400019,22.8200048 43.36,21.86 C42.9799981,20.8999952 42.79,19.8000062 42.79,18.56 C42.79,17.359994 42.989998,16.2750049 43.39,15.305 C43.790002,14.3349951 44.3149967,13.5150034 44.965,12.845 C45.6150033,12.1749966 46.3599958,11.6600018 47.2,11.3 C48.0400042,10.9399982 48.9099955,10.76 49.81,10.76 C50.8700053,10.76 51.7949961,10.9399982 52.585,11.3 C53.3750039,11.6600018 54.0349974,12.1599968 54.565,12.8 C55.0950026,13.4400032 55.4899987,14.1949956 55.75,15.065 C56.0100013,15.9350043 56.14,16.8799949 56.14,17.9 C56.14,18.300002 56.1200002,18.6799982 56.08,19.04 C56.0399998,19.4000018 56.0000002,19.6699991 55.96,19.85 L47.05,19.85 C47.250001,20.9300054 47.6949965,21.7249974 48.385,22.235 C49.0750034,22.7450026 49.919995,23 50.92,23 C51.9800053,23 53.0499946,22.6700033 54.13,22.01 L55.6,24.68 C54.8399962,25.2000026 53.9950047,25.6099985 53.065,25.91 C52.1349954,26.2100015 51.2200045,26.36 50.32,26.36 Z M47.02,16.94 L52.39,16.94 C52.39,16.0999958 52.2000019,15.4200026 51.82,14.9 C51.4399981,14.3799974 50.8000045,14.12 49.9,14.12 C49.1999965,14.12 48.5850026,14.3499977 48.055,14.81 C47.5249973,15.2700023 47.1800008,15.9799952 47.02,16.94 Z M59.2,26 L59.2,11.12 L62.8,11.12 L63.1,13.01 L63.22,13.01 C63.8600032,12.409997 64.5599962,11.8850022 65.32,11.435 C66.0800038,10.9849977 66.9699949,10.76 67.99,10.76 C69.6100081,10.76 70.7849964,11.2899947 71.515,12.35 C72.2450037,13.4100053 72.61,14.8799906 72.61,16.76 L72.61,26 L68.2,26 L68.2,17.33 C68.2,16.2499946 68.0550014,15.510002 67.765,15.11 C67.4749985,14.709998 67.0100032,14.51 66.37,14.51 C65.8099972,14.51 65.330002,14.6349988 64.93,14.885 C64.529998,15.1350012 64.0900024,15.4899977 63.61,15.95 L63.61,26 L59.2,26 Z M91.36,26.36 C90.0199933,26.36 88.7650058,26.1450021 87.595,25.715 C86.4249942,25.2849978 85.4100043,24.6500042 84.55,23.81 C83.6899957,22.9699958 83.0150024,21.9250062 82.525,20.675 C82.0349975,19.4249937 81.79,17.9800082 81.79,16.34 C81.79,14.7199919 82.0399975,13.2750063 82.54,12.005 C83.0400025,10.7349936 83.7249956,9.6600044 84.595,8.78 C85.4650043,7.8999956 86.4799942,7.2300023 87.64,6.77 C88.8000058,6.3099977 90.0299935,6.08 91.33,6.08 C92.7500071,6.08 93.9699949,6.3399974 94.99,6.86 C96.0100051,7.3800026 96.8399968,7.9699967 97.48,8.63 L95.17,11.45 C94.6699975,11.0099978 94.1400028,10.6400015 93.58,10.34 C93.0199972,10.0399985 92.3200042,9.89 91.48,9.89 C90.7199962,9.89 90.0250032,10.0349985 89.395,10.325 C88.7649968,10.6150014 88.2200023,11.0299973 87.76,11.57 C87.2999977,12.1100027 86.9450012,12.7699961 86.695,13.55 C86.4449987,14.3300039 86.32,15.2099951 86.32,16.19 C86.32,18.2100101 86.7749955,19.7749945 87.685,20.885 C88.5950045,21.9950055 89.9699908,22.55 91.81,22.55 C92.210002,22.55 92.5999981,22.5000005 92.98,22.4 C93.3600019,22.2999995 93.6699988,22.150001 93.91,21.95 L93.91,18.59 L90.67,18.59 L90.67,14.99 L97.81,14.99 L97.81,23.99 C97.1299966,24.6500033 96.2300056,25.2099977 95.11,25.67 C93.9899944,26.1300023 92.7400069,26.36 91.36,26.36 Z M107.89,26.36 C106.949995,26.36 106.040004,26.1850017 105.16,25.835 C104.279996,25.4849983 103.505003,24.9800033 102.835,24.32 C102.164997,23.6599967 101.630002,22.8450048 101.23,21.875 C100.829998,20.9049952 100.63,19.8000062 100.63,18.56 C100.63,17.3199938 100.829998,16.2150048 101.23,15.245 C101.630002,14.2749952 102.164997,13.4600033 102.835,12.8 C103.505003,12.1399967 104.279996,11.6350018 105.16,11.285 C106.040004,10.9349982 106.949995,10.76 107.89,10.76 C108.830005,10.76 109.734996,10.9349982 110.605,11.285 C111.475004,11.6350018 112.244997,12.1399967 112.915,12.8 C113.585003,13.4600033 114.119998,14.2749952 114.52,15.245 C114.920002,16.2150048 115.12,17.3199938 115.12,18.56 C115.12,19.8000062 114.920002,20.9049952 114.52,21.875 C114.119998,22.8450048 113.585003,23.6599967 112.915,24.32 C112.244997,24.9800033 111.475004,25.4849983 110.605,25.835 C109.734996,26.1850017 108.830005,26.36 107.89,26.36 Z M107.89,22.79 C108.790004,22.79 109.469998,22.4100038 109.93,21.65 C110.390002,20.8899962 110.62,19.8600065 110.62,18.56 C110.62,17.2599935 110.390002,16.2300038 109.93,15.47 C109.469998,14.7099962 108.790004,14.33 107.89,14.33 C106.969995,14.33 106.285002,14.7099962 105.835,15.47 C105.384998,16.2300038 105.16,17.2599935 105.16,18.56 C105.16,19.8600065 105.384998,20.8899962 105.835,21.65 C106.285002,22.4100038 106.969995,22.79 107.89,22.79 Z M121.57,26 L116.56,11.12 L121,11.12 L122.92,18.14 C123.120001,18.8800037 123.314999,19.6349962 123.505,20.405 C123.695001,21.1750039 123.889999,21.9499961 124.09,22.73 L124.21,22.73 C124.390001,21.9499961 124.574999,21.1750039 124.765,20.405 C124.955001,19.6349962 125.149999,18.8800037 125.35,18.14 L127.3,11.12 L131.53,11.12 L126.67,26 L121.57,26 Z M140.5,26.36 C139.439995,26.36 138.450005,26.1850017 137.53,25.835 C136.609995,25.4849983 135.810003,24.9750034 135.13,24.305 C134.449997,23.6349966 133.920002,22.8200048 133.54,21.86 C133.159998,20.8999952 132.97,19.8000062 132.97,18.56 C132.97,17.359994 133.169998,16.2750049 133.57,15.305 C133.970002,14.3349951 134.494997,13.5150034 135.145,12.845 C135.795003,12.1749966 136.539996,11.6600018 137.38,11.3 C138.220004,10.9399982 139.089995,10.76 139.99,10.76 C141.050005,10.76 141.974996,10.9399982 142.765,11.3 C143.555004,11.6600018 144.214997,12.1599968 144.745,12.8 C145.275003,13.4400032 145.669999,14.1949956 145.93,15.065 C146.190001,15.9350043 146.32,16.8799949 146.32,17.9 C146.32,18.300002 146.3,18.6799982 146.26,19.04 C146.22,19.4000018 146.18,19.6699991 146.14,19.85 L137.23,19.85 C137.430001,20.9300054 137.874997,21.7249974 138.565,22.235 C139.255003,22.7450026 140.099995,23 141.1,23 C142.160005,23 143.229995,22.6700033 144.31,22.01 L145.78,24.68 C145.019996,25.2000026 144.175005,25.6099985 143.245,25.91 C142.314995,26.2100015 141.400004,26.36 140.5,26.36 Z M137.2,16.94 L142.57,16.94 C142.57,16.0999958 142.380002,15.4200026 142,14.9 C141.619998,14.3799974 140.980004,14.12 140.08,14.12 C139.379996,14.12 138.765003,14.3499977 138.235,14.81 C137.704997,15.2700023 137.360001,15.9799952 137.2,16.94 Z M149.38,26 L149.38,11.12 L152.98,11.12 L153.28,13.73 L153.4,13.73 C153.940003,12.7099949 154.589996,11.9600024 155.35,11.48 C156.110004,10.9999976 156.869996,10.76 157.63,10.76 C158.050002,10.76 158.394999,10.7849997 158.665,10.835 C158.935001,10.8850002 159.179999,10.9599995 159.4,11.06 L158.68,14.87 C158.399999,14.7899996 158.140001,14.7300002 157.9,14.69 C157.659999,14.6499998 157.380002,14.63 157.06,14.63 C156.499997,14.63 155.915003,14.829998 155.305,15.23 C154.694997,15.630002 154.190002,16.3399949 153.79,17.36 L153.79,26 L149.38,26 Z M161.32,26 L161.32,11.12 L164.92,11.12 L165.22,13.01 L165.34,13.01 C165.980003,12.409997 166.679996,11.8850022 167.44,11.435 C168.200004,10.9849977 169.089995,10.76 170.11,10.76 C171.730008,10.76 172.904996,11.2899947 173.635,12.35 C174.365004,13.4100053 174.73,14.8799906 174.73,16.76 L174.73,26 L170.32,26 L170.32,17.33 C170.32,16.2499946 170.175001,15.510002 169.885,15.11 C169.594999,14.709998 169.130003,14.51 168.49,14.51 C167.929997,14.51 167.450002,14.6349988 167.05,14.885 C166.649998,15.1350012 166.210002,15.4899977 165.73,15.95 L165.73,26 L161.32,26 Z M178.48,26 L178.48,11.12 L182.08,11.12 L182.38,13.04 L182.5,13.04 C183.120003,12.4199969 183.779997,11.8850022 184.48,11.435 C185.180003,10.9849977 186.019995,10.76 187,10.76 C188.060005,10.76 188.914997,10.9749978 189.565,11.405 C190.215003,11.8350022 190.729998,12.449996 191.11,13.25 C191.770003,12.5699966 192.464996,11.9850025 193.195,11.495 C193.925004,11.0049975 194.789995,10.76 195.79,10.76 C197.390008,10.76 198.564996,11.2949946 199.315,12.365 C200.065004,13.4350053 200.44,14.8999907 200.44,16.76 L200.44,26 L196.03,26 L196.03,17.33 C196.03,16.2499946 195.885001,15.510002 195.595,15.11 C195.304999,14.709998 194.840003,14.51 194.2,14.51 C193.459996,14.51 192.610005,14.9899952 191.65,15.95 L191.65,26 L187.24,26 L187.24,17.33 C187.24,16.2499946 187.095001,15.510002 186.805,15.11 C186.514999,14.709998 186.050003,14.51 185.41,14.51 C184.649996,14.51 183.810005,14.9899952 182.89,15.95 L182.89,26 L178.48,26 Z M210.85,26.36 C209.789995,26.36 208.800005,26.1850017 207.88,25.835 C206.959995,25.4849983 206.160003,24.9750034 205.48,24.305 C204.799997,23.6349966 204.270002,22.8200048 203.89,21.86 C203.509998,20.8999952 203.32,19.8000062 203.32,18.56 C203.32,17.359994 203.519998,16.2750049 203.92,15.305 C204.320002,14.3349951 204.844997,13.5150034 205.495,12.845 C206.145003,12.1749966 206.889996,11.6600018 207.73,11.3 C208.570004,10.9399982 209.439995,10.76 210.34,10.76 C211.400005,10.76 212.324996,10.9399982 213.115,11.3 C213.905004,11.6600018 214.564997,12.1599968 215.095,12.8 C215.625003,13.4400032 216.019999,14.1949956 216.28,15.065 C216.540001,15.9350043 216.67,16.8799949 216.67,17.9 C216.67,18.300002 216.65,18.6799982 216.61,19.04 C216.57,19.4000018 216.53,19.6699991 216.49,19.85 L207.58,19.85 C207.780001,20.9300054 208.224997,21.7249974 208.915,22.235 C209.605003,22.7450026 210.449995,23 211.45,23 C212.510005,23 213.579995,22.6700033 214.66,22.01 L216.13,24.68 C215.369996,25.2000026 214.525005,25.6099985 213.595,25.91 C212.664995,26.2100015 211.750004,26.36 210.85,26.36 Z M207.55,16.94 L212.92,16.94 C212.92,16.0999958 212.730002,15.4200026 212.35,14.9 C211.969998,14.3799974 211.330004,14.12 210.43,14.12 C209.729996,14.12 209.115003,14.3499977 208.585,14.81 C208.054997,15.2700023 207.710001,15.9799952 207.55,16.94 Z M219.73,26 L219.73,11.12 L223.33,11.12 L223.63,13.01 L223.75,13.01 C224.390003,12.409997 225.089996,11.8850022 225.85,11.435 C226.610004,10.9849977 227.499995,10.76 228.52,10.76 C230.140008,10.76 231.314996,11.2899947 232.045,12.35 C232.775004,13.4100053 233.14,14.8799906 233.14,16.76 L233.14,26 L228.73,26 L228.73,17.33 C228.73,16.2499946 228.585001,15.510002 228.295,15.11 C228.004999,14.709998 227.540003,14.51 226.9,14.51 C226.339997,14.51 225.860002,14.6349988 225.46,14.885 C225.059998,15.1350012 224.620002,15.4899977 224.14,15.95 L224.14,26 L219.73,26 Z M242.62,26.36 C241.699995,26.36 240.915003,26.2200014 240.265,25.94 C239.614997,25.6599986 239.085002,25.2700025 238.675,24.77 C238.264998,24.2699975 237.965001,23.6650035 237.775,22.955 C237.584999,22.2449965 237.49,21.4600043 237.49,20.6 L237.49,14.57 L235.45,14.57 L235.45,11.3 L237.73,11.12 L238.24,7.16 L241.9,7.16 L241.9,11.12 L245.47,11.12 L245.47,14.57 L241.9,14.57 L241.9,20.54 C241.9,21.3800042 242.074998,21.9849981 242.425,22.355 C242.775002,22.7250018 243.239997,22.91 243.82,22.91 C244.060001,22.91 244.304999,22.8800003 244.555,22.82 C244.805001,22.7599997 245.029999,22.6900004 245.23,22.61 L245.92,25.82 C245.519998,25.9400006 245.050003,26.0599994 244.51,26.18 C243.969997,26.3000006 243.340004,26.36 242.62,26.36 Z M6.31,56 L6.31,36.44 L13.03,36.44 C14.1100054,36.44 15.1199953,36.544999 16.06,36.755 C17.0000047,36.965001 17.8199965,37.3149976 18.52,37.805 C19.2200035,38.2950024 19.774998,38.9449959 20.185,39.755 C20.5950021,40.565004 20.8,41.5599941 20.8,42.74 C20.8,43.8800057 20.5950021,44.8699958 20.185,45.71 C19.774998,46.5500042 19.2200035,47.2399973 18.52,47.78 C17.8199965,48.3200027 17.0100046,48.7199987 16.09,48.98 C15.1699954,49.2400013 14.1900052,49.37 13.15,49.37 L10.72,49.37 L10.72,56 L6.31,56 Z M10.72,45.86 L12.88,45.86 C15.280012,45.86 16.48,44.8200104 16.48,42.74 C16.48,41.7199949 16.1600032,41.0000021 15.52,40.58 C14.8799968,40.1599979 13.960006,39.95 12.76,39.95 L10.72,39.95 L10.72,45.86 Z M23.83,56 L23.83,41.12 L27.43,41.12 L27.73,43.73 L27.85,43.73 C28.3900027,42.7099949 29.0399962,41.9600024 29.8,41.48 C30.5600038,40.9999976 31.3199962,40.76 32.08,40.76 C32.5000021,40.76 32.8449987,40.7849997 33.115,40.835 C33.3850013,40.8850002 33.6299989,40.9599995 33.85,41.06 L33.13,44.87 C32.8499986,44.7899996 32.5900012,44.7300002 32.35,44.69 C32.1099988,44.6499998 31.8300016,44.63 31.51,44.63 C30.9499972,44.63 30.3650031,44.829998 29.755,45.23 C29.144997,45.630002 28.640002,46.3399949 28.24,47.36 L28.24,56 L23.83,56 Z M42.16,56.36 C41.2199953,56.36 40.3100044,56.1850017 39.43,55.835 C38.5499956,55.4849983 37.7750033,54.9800033 37.105,54.32 C36.4349967,53.6599967 35.900002,52.8450049 35.5,51.875 C35.099998,50.9049951 34.9,49.8000062 34.9,48.56 C34.9,47.3199938 35.099998,46.2150048 35.5,45.245 C35.900002,44.2749952 36.4349967,43.4600033 37.105,42.8 C37.7750033,42.1399967 38.5499956,41.6350018 39.43,41.285 C40.3100044,40.9349982 41.2199953,40.76 42.16,40.76 C43.1000047,40.76 44.0049956,40.9349982 44.875,41.285 C45.7450044,41.6350018 46.5149967,42.1399967 47.185,42.8 C47.8550034,43.4600033 48.389998,44.2749952 48.79,45.245 C49.190002,46.2150048 49.39,47.3199938 49.39,48.56 C49.39,49.8000062 49.190002,50.9049951 48.79,51.875 C48.389998,52.8450049 47.8550034,53.6599967 47.185,54.32 C46.5149967,54.9800033 45.7450044,55.4849983 44.875,55.835 C44.0049956,56.1850017 43.1000047,56.36 42.16,56.36 Z M42.16,52.79 C43.0600045,52.79 43.7399977,52.4100038 44.2,51.65 C44.6600023,50.8899962 44.89,49.8600065 44.89,48.56 C44.89,47.2599935 44.6600023,46.2300038 44.2,45.47 C43.7399977,44.7099962 43.0600045,44.33 42.16,44.33 C41.2399954,44.33 40.5550023,44.7099962 40.105,45.47 C39.6549977,46.2300038 39.43,47.2599935 39.43,48.56 C39.43,49.8600065 39.6549977,50.8899962 40.105,51.65 C40.5550023,52.4100038 41.2399954,52.79 42.16,52.79 Z M57.73,56.36 C56.8099954,56.36 55.9750038,56.1800018 55.225,55.82 C54.4749963,55.4599982 53.8350027,54.9450034 53.305,54.275 C52.7749973,53.6049966 52.3650015,52.7900048 52.075,51.83 C51.7849986,50.8699952 51.64,49.7800061 51.64,48.56 C51.64,47.3399939 51.8149983,46.2500048 52.165,45.29 C52.5150018,44.3299952 52.9749972,43.5150034 53.545,42.845 C54.1150029,42.1749966 54.7749963,41.6600018 55.525,41.3 C56.2750038,40.9399982 57.0399961,40.76 57.82,40.76 C58.6600042,40.76 59.3499973,40.8999986 59.89,41.18 C60.4300027,41.4600014 60.9599974,41.8399976 61.48,42.32 L61.3,40.04 L61.3,34.97 L65.71,34.97 L65.71,56 L62.11,56 L61.81,54.53 L61.69,54.53 C61.1699974,55.0500026 60.5600035,55.4849983 59.86,55.835 C59.1599965,56.1850017 58.4500036,56.36 57.73,56.36 Z M58.87,52.76 C59.3500024,52.76 59.7849981,52.660001 60.175,52.46 C60.565002,52.259999 60.9399982,51.9100025 61.3,51.41 L61.3,45.32 C60.899998,44.9599982 60.4900021,44.7100007 60.07,44.57 C59.6499979,44.4299993 59.240002,44.36 58.84,44.36 C58.1399965,44.36 57.5200027,44.6949967 56.98,45.365 C56.4399973,46.0350033 56.17,47.0799929 56.17,48.5 C56.17,49.9800074 56.4049977,51.0599966 56.875,51.74 C57.3450024,52.4200034 58.0099957,52.76 58.87,52.76 Z M74.08,56.36 C72.4599919,56.36 71.2850036,55.8300053 70.555,54.77 C69.8249963,53.7099947 69.46,52.2400094 69.46,50.36 L69.46,41.12 L73.87,41.12 L73.87,49.79 C73.87,50.8700054 74.0199985,51.609998 74.32,52.01 C74.6200015,52.410002 75.0899968,52.61 75.73,52.61 C76.2900028,52.61 76.7599981,52.4800013 77.14,52.22 C77.5200019,51.9599987 77.9299978,51.5400029 78.37,50.96 L78.37,41.12 L82.78,41.12 L82.78,56 L79.18,56 L78.85,53.93 L78.76,53.93 C78.1199968,54.6900038 77.4350036,55.2849978 76.705,55.715 C75.9749963,56.1450021 75.1000051,56.36 74.08,56.36 Z M93.13,56.36 C92.0899948,56.36 91.1250045,56.1850017 90.235,55.835 C89.3449956,55.4849983 88.5700033,54.9800033 87.91,54.32 C87.2499967,53.6599967 86.7300019,52.8450049 86.35,51.875 C85.9699981,50.9049951 85.78,49.8000062 85.78,48.56 C85.78,47.3199938 85.9899979,46.2150048 86.41,45.245 C86.8300021,44.2749952 87.3949965,43.4600033 88.105,42.8 C88.8150036,42.1399967 89.6399953,41.6350018 90.58,41.285 C91.5200047,40.9349982 92.4999949,40.76 93.52,40.76 C94.4400046,40.76 95.2549965,40.9099985 95.965,41.21 C96.6750035,41.5100015 97.3099972,41.8899977 97.87,42.35 L95.8,45.2 C95.0999965,44.6199971 94.4300032,44.33 93.79,44.33 C92.7099946,44.33 91.8600031,44.7099962 91.24,45.47 C90.6199969,46.2300038 90.31,47.2599935 90.31,48.56 C90.31,49.8600065 90.6249969,50.8899962 91.255,51.65 C91.8850032,52.4100038 92.6799952,52.79 93.64,52.79 C94.1200024,52.79 94.5849977,52.685001 95.035,52.475 C95.4850022,52.2649989 95.909998,52.0100015 96.31,51.71 L98.05,54.59 C97.3099963,55.2300032 96.5100043,55.6849986 95.65,55.955 C94.7899957,56.2250013 93.9500041,56.36 93.13,56.36 Z M106.39,56.36 C105.469995,56.36 104.685003,56.2200014 104.035,55.94 C103.384997,55.6599986 102.855002,55.2700025 102.445,54.77 C102.034998,54.2699975 101.735001,53.6650035 101.545,52.955 C101.354999,52.2449965 101.26,51.4600043 101.26,50.6 L101.26,44.57 L99.22,44.57 L99.22,41.3 L101.5,41.12 L102.01,37.16 L105.67,37.16 L105.67,41.12 L109.24,41.12 L109.24,44.57 L105.67,44.57 L105.67,50.54 C105.67,51.3800042 105.844998,51.9849981 106.195,52.355 C106.545002,52.7250018 107.009997,52.91 107.59,52.91 C107.830001,52.91 108.074999,52.8800003 108.325,52.82 C108.575001,52.7599997 108.799999,52.6900004 109,52.61 L109.69,55.82 C109.289998,55.9400006 108.820003,56.0599994 108.28,56.18 C107.739997,56.3000006 107.110004,56.36 106.39,56.36 Z M116.53,56.36 C115.549995,56.36 114.545005,56.1700019 113.515,55.79 C112.484995,55.4099981 111.590004,54.9100031 110.83,54.29 L112.81,51.53 C113.490003,52.0500026 114.139997,52.4399987 114.76,52.7 C115.380003,52.9600013 116.009997,53.09 116.65,53.09 C117.310003,53.09 117.789998,52.9800011 118.09,52.76 C118.390002,52.5399989 118.54,52.230002 118.54,51.83 C118.54,51.5899988 118.455001,51.375001 118.285,51.185 C118.114999,50.9949991 117.885001,50.8200008 117.595,50.66 C117.304999,50.4999992 116.980002,50.3550007 116.62,50.225 C116.259998,50.0949994 115.890002,49.9500008 115.51,49.79 C115.049998,49.6099991 114.590002,49.4000012 114.13,49.16 C113.669998,48.9199988 113.250002,48.6250018 112.87,48.275 C112.489998,47.9249983 112.180001,47.5150024 111.94,47.045 C111.699999,46.5749977 111.58,46.0300031 111.58,45.41 C111.58,44.7299966 111.714999,44.1000029 111.985,43.52 C112.255001,42.9399971 112.639998,42.450002 113.14,42.05 C113.640002,41.649998 114.239997,41.3350012 114.94,41.105 C115.640003,40.8749988 116.419996,40.76 117.28,40.76 C118.420006,40.76 119.419996,40.9549981 120.28,41.345 C121.140004,41.7350019 121.889997,42.1699976 122.53,42.65 L120.55,45.29 C120.009997,44.889998 119.480003,44.5800011 118.96,44.36 C118.439997,44.1399989 117.920003,44.03 117.4,44.03 C116.279994,44.03 115.72,44.4199961 115.72,45.2 C115.72,45.4400012 115.799999,45.6449992 115.96,45.815 C116.120001,45.9850008 116.334999,46.1399993 116.605,46.28 C116.875001,46.4200007 117.184998,46.5549994 117.535,46.685 C117.885002,46.8150007 118.249998,46.9499993 118.63,47.09 C119.110002,47.2700009 119.584998,47.4749988 120.055,47.705 C120.525002,47.9350012 120.954998,48.2199983 121.345,48.56 C121.735002,48.9000017 122.049999,49.3149976 122.29,49.805 C122.530001,50.2950024 122.65,50.8799966 122.65,51.56 C122.65,52.2400034 122.520001,52.8699971 122.26,53.45 C121.999999,54.0300029 121.610003,54.5349978 121.09,54.965 C120.569997,55.3950021 119.930004,55.7349988 119.17,55.985 C118.409996,56.2350012 117.530005,56.36 116.53,56.36 Z" id="Open-Government-Prod" fill="#393939"></path>
    </g>
</svg>