<?xml version="1.0" encoding="UTF-8"?>
<svg width="180px" height="100px" viewBox="0 0 180 100" version="1.1" xmlns="http://www.w3.org/2000/svg" xmlns:xlink="http://www.w3.org/1999/xlink">
    <!-- Generator: Sketch 50 (54983) - http://www.bohemiancoding.com/sketch -->
    <title>teamlogo_1</title>
    <desc>Created with Sketch.</desc>
    <defs></defs>
    <g id="teamlogo_1" stroke="none" stroke-width="1" fill="none" fill-rule="evenodd">
        <path d="M14.26,26.36 C12.9399934,26.36 11.7350054,26.1250024 10.645,25.655 C9.55499455,25.1849976 8.6200039,24.5100044 7.84,23.63 C7.0599961,22.7499956 6.45500215,21.6800063 6.025,20.42 C5.59499785,19.1599937 5.38,17.730008 5.38,16.13 C5.38,14.529992 5.59499785,13.1050063 6.025,11.855 C6.45500215,10.6049938 7.0599961,9.55500425 7.84,8.705 C8.6200039,7.85499575 9.55499455,7.20500225 10.645,6.755 C11.7350054,6.30499775 12.9399934,6.08 14.26,6.08 C15.5800066,6.08 16.7849946,6.30499775 17.875,6.755 C18.9650055,7.20500225 19.8999961,7.8599957 20.68,8.72 C21.4600039,9.5800043 22.0649978,10.6349938 22.495,11.885 C22.9250022,13.1350063 23.14,14.5499921 23.14,16.13 C23.14,17.730008 22.9250022,19.1599937 22.495,20.42 C22.0649978,21.6800063 21.4600039,22.7499956 20.68,23.63 C19.8999961,24.5100044 18.9650055,25.1849976 17.875,25.655 C16.7849946,26.1250024 15.5800066,26.36 14.26,26.36 Z M14.26,22.55 C15.6000067,22.55 16.6599961,21.9750057 17.44,20.825 C18.2200039,19.6749943 18.61,18.1100099 18.61,16.13 C18.61,14.1699902 18.2200039,12.6400055 17.44,11.54 C16.6599961,10.4399945 15.6000067,9.89 14.26,9.89 C12.9199933,9.89 11.8600039,10.4399945 11.08,11.54 C10.2999961,12.6400055 9.91,14.1699902 9.91,16.13 C9.91,18.1100099 10.2999961,19.6749943 11.08,20.825 C11.8600039,21.9750057 12.9199933,22.55 14.26,22.55 Z M26.47,31.52 L26.47,11.12 L30.07,11.12 L30.37,12.59 L30.49,12.59 C31.0700029,12.0699974 31.7249963,11.6350018 32.455,11.285 C33.1850036,10.9349983 33.9399961,10.76 34.72,10.76 C35.6200045,10.76 36.4299964,10.9399982 37.15,11.3 C37.8700036,11.6600018 38.4799975,12.1699967 38.98,12.83 C39.4800025,13.4900033 39.8649986,14.2849954 40.135,15.215 C40.4050013,16.1450047 40.54,17.1799943 40.54,18.32 C40.54,19.6000064 40.3650017,20.734995 40.015,21.725 C39.6649982,22.7150049 39.1950029,23.5549965 38.605,24.245 C38.014997,24.9350035 37.3450038,25.4599982 36.595,25.82 C35.8449962,26.1800018 35.070004,26.36 34.27,26.36 C33.6299968,26.36 33.010003,26.2250013 32.41,25.955 C31.809997,25.6849986 31.2500026,25.3000025 30.73,24.8 L30.88,27.17 L30.88,31.52 L26.47,31.52 Z M33.25,22.76 C34.0100038,22.76 34.6599973,22.4150035 35.2,21.725 C35.7400027,21.0349966 36.01,19.9200077 36.01,18.38 C36.01,15.6999866 35.1500086,14.36 33.43,14.36 C32.5699957,14.36 31.7200042,14.8099955 30.88,15.71 L30.88,21.8 C31.280002,22.1600018 31.679998,22.4099993 32.08,22.55 C32.480002,22.6900007 32.8699981,22.76 33.25,22.76 Z M50.32,26.36 C49.2599947,26.36 48.2700046,26.1850017 47.35,25.835 C46.4299954,25.4849983 45.6300034,24.9750034 44.95,24.305 C44.2699966,23.6349967 43.7400019,22.8200048 43.36,21.86 C42.9799981,20.8999952 42.79,19.8000062 42.79,18.56 C42.79,17.359994 42.989998,16.2750049 43.39,15.305 C43.790002,14.3349951 44.3149967,13.5150034 44.965,12.845 C45.6150032,12.1749966 46.3599958,11.6600018 47.2,11.3 C48.0400042,10.9399982 48.9099955,10.76 49.81,10.76 C50.8700053,10.76 51.794996,10.9399982 52.585,11.3 C53.3750039,11.6600018 54.0349973,12.1599968 54.565,12.8 C55.0950026,13.4400032 55.4899987,14.1949957 55.75,15.065 C56.0100013,15.9350043 56.14,16.8799949 56.14,17.9 C56.14,18.300002 56.1200002,18.6799982 56.08,19.04 C56.0399998,19.4000018 56.0000002,19.6699991 55.96,19.85 L47.05,19.85 C47.250001,20.9300054 47.6949965,21.7249974 48.385,22.235 C49.0750034,22.7450025 49.919995,23 50.92,23 C51.9800053,23 53.0499946,22.6700033 54.13,22.01 L55.6,24.68 C54.8399962,25.2000026 53.9950046,25.6099985 53.065,25.91 C52.1349953,26.2100015 51.2200045,26.36 50.32,26.36 Z M47.02,16.94 L52.39,16.94 C52.39,16.0999958 52.2000019,15.4200026 51.82,14.9 C51.4399981,14.3799974 50.8000045,14.12 49.9,14.12 C49.1999965,14.12 48.5850026,14.3499977 48.055,14.81 C47.5249973,15.2700023 47.1800008,15.9799952 47.02,16.94 Z M59.2,26 L59.2,11.12 L62.8,11.12 L63.1,13.01 L63.22,13.01 C63.8600032,12.409997 64.5599962,11.8850022 65.32,11.435 C66.0800038,10.9849978 66.9699949,10.76 67.99,10.76 C69.6100081,10.76 70.7849963,11.2899947 71.515,12.35 C72.2450036,13.4100053 72.61,14.8799906 72.61,16.76 L72.61,26 L68.2,26 L68.2,17.33 C68.2,16.2499946 68.0550014,15.510002 67.765,15.11 C67.4749985,14.709998 67.0100032,14.51 66.37,14.51 C65.8099972,14.51 65.330002,14.6349988 64.93,14.885 C64.529998,15.1350013 64.0900024,15.4899977 63.61,15.95 L63.61,26 L59.2,26 Z M14.95,56.36 C13.6099933,56.36 12.3550058,56.1450021 11.185,55.715 C10.0149941,55.2849978 9.0000043,54.6500042 8.14,53.81 C7.2799957,52.9699958 6.60500245,51.9250062 6.115,50.675 C5.62499755,49.4249937 5.38,47.9800082 5.38,46.34 C5.38,44.7199919 5.6299975,43.2750063 6.13,42.005 C6.6300025,40.7349936 7.31499565,39.6600044 8.185,38.78 C9.05500435,37.8999956 10.0699942,37.2300023 11.23,36.77 C12.3900058,36.3099977 13.6199935,36.08 14.92,36.08 C16.3400071,36.08 17.5599949,36.3399974 18.58,36.86 C19.6000051,37.3800026 20.4299968,37.9699967 21.07,38.63 L18.76,41.45 C18.2599975,41.0099978 17.7300028,40.6400015 17.17,40.34 C16.6099972,40.0399985 15.9100042,39.89 15.07,39.89 C14.3099962,39.89 13.6150031,40.0349985 12.985,40.325 C12.3549968,40.6150014 11.8100023,41.0299973 11.35,41.57 C10.8899977,42.1100027 10.5350013,42.7699961 10.285,43.55 C10.0349987,44.3300039 9.91,45.2099951 9.91,46.19 C9.91,48.2100101 10.3649955,49.7749945 11.275,50.885 C12.1850046,51.9950055 13.5599908,52.55 15.4,52.55 C15.800002,52.55 16.1899981,52.5000005 16.57,52.4 C16.9500019,52.2999995 17.2599988,52.150001 17.5,51.95 L17.5,48.59 L14.26,48.59 L14.26,44.99 L21.4,44.99 L21.4,53.99 C20.7199966,54.6500033 19.8200056,55.2099977 18.7,55.67 C17.5799944,56.1300023 16.3300069,56.36 14.95,56.36 Z M31.48,56.36 C30.5399953,56.36 29.6300044,56.1850018 28.75,55.835 C27.8699956,55.4849983 27.0950033,54.9800033 26.425,54.32 C25.7549967,53.6599967 25.220002,52.8450049 24.82,51.875 C24.419998,50.9049952 24.22,49.8000062 24.22,48.56 C24.22,47.3199938 24.419998,46.2150049 24.82,45.245 C25.220002,44.2749952 25.7549967,43.4600033 26.425,42.8 C27.0950033,42.1399967 27.8699956,41.6350018 28.75,41.285 C29.6300044,40.9349982 30.5399953,40.76 31.48,40.76 C32.4200047,40.76 33.3249956,40.9349982 34.195,41.285 C35.0650043,41.6350018 35.8349967,42.1399967 36.505,42.8 C37.1750033,43.4600033 37.709998,44.2749952 38.11,45.245 C38.510002,46.2150049 38.71,47.3199938 38.71,48.56 C38.71,49.8000062 38.510002,50.9049952 38.11,51.875 C37.709998,52.8450049 37.1750033,53.6599967 36.505,54.32 C35.8349967,54.9800033 35.0650043,55.4849983 34.195,55.835 C33.3249956,56.1850018 32.4200047,56.36 31.48,56.36 Z M31.48,52.79 C32.3800045,52.79 33.0599977,52.4100038 33.52,51.65 C33.9800023,50.8899962 34.21,49.8600065 34.21,48.56 C34.21,47.2599935 33.9800023,46.2300038 33.52,45.47 C33.0599977,44.7099962 32.3800045,44.33 31.48,44.33 C30.5599954,44.33 29.8750023,44.7099962 29.425,45.47 C28.9749977,46.2300038 28.75,47.2599935 28.75,48.56 C28.75,49.8600065 28.9749977,50.8899962 29.425,51.65 C29.8750023,52.4100038 30.5599954,52.79 31.48,52.79 Z M45.16,56 L40.15,41.12 L44.59,41.12 L46.51,48.14 C46.710001,48.8800037 46.9049991,49.6349962 47.095,50.405 C47.285001,51.1750039 47.479999,51.9499961 47.68,52.73 L47.8,52.73 C47.9800009,51.9499961 48.1649991,51.1750039 48.355,50.405 C48.545001,49.6349962 48.739999,48.8800037 48.94,48.14 L50.89,41.12 L55.12,41.12 L50.26,56 L45.16,56 Z M64.09,56.36 C63.0299947,56.36 62.0400046,56.1850018 61.12,55.835 C60.1999954,55.4849983 59.4000034,54.9750034 58.72,54.305 C58.0399966,53.6349967 57.5100019,52.8200048 57.13,51.86 C56.7499981,50.8999952 56.56,49.8000062 56.56,48.56 C56.56,47.359994 56.759998,46.2750049 57.16,45.305 C57.560002,44.3349952 58.0849967,43.5150034 58.735,42.845 C59.3850032,42.1749967 60.1299958,41.6600018 60.97,41.3 C61.8100042,40.9399982 62.6799955,40.76 63.58,40.76 C64.6400053,40.76 65.564996,40.9399982 66.355,41.3 C67.1450039,41.6600018 67.8049973,42.1599968 68.335,42.8 C68.8650026,43.4400032 69.2599987,44.1949957 69.52,45.065 C69.7800013,45.9350044 69.91,46.8799949 69.91,47.9 C69.91,48.300002 69.8900002,48.6799982 69.85,49.04 C69.8099998,49.4000018 69.7700002,49.6699991 69.73,49.85 L60.82,49.85 C61.020001,50.9300054 61.4649965,51.7249975 62.155,52.235 C62.8450034,52.7450026 63.689995,53 64.69,53 C65.7500053,53 66.8199946,52.6700033 67.9,52.01 L69.37,54.68 C68.6099962,55.2000026 67.7650046,55.6099985 66.835,55.91 C65.9049953,56.2100015 64.9900045,56.36 64.09,56.36 Z M60.79,46.94 L66.16,46.94 C66.16,46.0999958 65.9700019,45.4200026 65.59,44.9 C65.2099981,44.3799974 64.5700045,44.12 63.67,44.12 C62.9699965,44.12 62.3550027,44.3499977 61.825,44.81 C61.2949973,45.2700023 60.9500008,45.9799952 60.79,46.94 Z M72.97,56 L72.97,41.12 L76.57,41.12 L76.87,43.73 L76.99,43.73 C77.5300027,42.7099949 78.1799962,41.9600024 78.94,41.48 C79.7000038,40.9999976 80.4599962,40.76 81.22,40.76 C81.6400021,40.76 81.9849986,40.7849997 82.255,40.835 C82.5250013,40.8850002 82.7699989,40.9599995 82.99,41.06 L82.27,44.87 C81.9899986,44.7899996 81.7300012,44.7300002 81.49,44.69 C81.2499988,44.6499998 80.9700016,44.63 80.65,44.63 C80.0899972,44.63 79.505003,44.829998 78.895,45.23 C78.2849969,45.630002 77.780002,46.3399949 77.38,47.36 L77.38,56 L72.97,56 Z M84.91,56 L84.91,41.12 L88.51,41.12 L88.81,43.01 L88.93,43.01 C89.5700032,42.409997 90.2699962,41.8850022 91.03,41.435 C91.7900038,40.9849977 92.6799949,40.76 93.7,40.76 C95.3200081,40.76 96.4949963,41.2899947 97.225,42.35 C97.9550036,43.4100053 98.32,44.8799906 98.32,46.76 L98.32,56 L93.91,56 L93.91,47.33 C93.91,46.2499946 93.7650014,45.510002 93.475,45.11 C93.1849985,44.709998 92.7200032,44.51 92.08,44.51 C91.5199972,44.51 91.040002,44.6349988 90.64,44.885 C90.239998,45.1350012 89.8000024,45.4899977 89.32,45.95 L89.32,56 L84.91,56 Z M102.07,56 L102.07,41.12 L105.67,41.12 L105.97,43.04 L106.09,43.04 C106.710003,42.4199969 107.369996,41.8850022 108.07,41.435 C108.770003,40.9849977 109.609995,40.76 110.59,40.76 C111.650005,40.76 112.504997,40.9749978 113.155,41.405 C113.805003,41.8350022 114.319998,42.449996 114.7,43.25 C115.360003,42.5699966 116.054996,41.9850025 116.785,41.495 C117.515004,41.0049975 118.379995,40.76 119.38,40.76 C120.980008,40.76 122.154996,41.2949946 122.905,42.365 C123.655004,43.4350053 124.03,44.8999907 124.03,46.76 L124.03,56 L119.62,56 L119.62,47.33 C119.62,46.2499946 119.475001,45.510002 119.185,45.11 C118.894999,44.709998 118.430003,44.51 117.79,44.51 C117.049996,44.51 116.200005,44.9899952 115.24,45.95 L115.24,56 L110.83,56 L110.83,47.33 C110.83,46.2499946 110.685001,45.510002 110.395,45.11 C110.104999,44.709998 109.640003,44.51 109,44.51 C108.239996,44.51 107.400005,44.9899952 106.48,45.95 L106.48,56 L102.07,56 Z M134.44,56.36 C133.379995,56.36 132.390005,56.1850018 131.47,55.835 C130.549995,55.4849983 129.750003,54.9750034 129.07,54.305 C128.389997,53.6349967 127.860002,52.8200048 127.48,51.86 C127.099998,50.8999952 126.91,49.8000062 126.91,48.56 C126.91,47.359994 127.109998,46.2750049 127.51,45.305 C127.910002,44.3349952 128.434997,43.5150034 129.085,42.845 C129.735003,42.1749967 130.479996,41.6600018 131.32,41.3 C132.160004,40.9399982 133.029996,40.76 133.93,40.76 C134.990005,40.76 135.914996,40.9399982 136.705,41.3 C137.495004,41.6600018 138.154997,42.1599968 138.685,42.8 C139.215003,43.4400032 139.609999,44.1949957 139.87,45.065 C140.130001,45.9350044 140.26,46.8799949 140.26,47.9 C140.26,48.300002 140.24,48.6799982 140.2,49.04 C140.16,49.4000018 140.12,49.6699991 140.08,49.85 L131.17,49.85 C131.370001,50.9300054 131.814997,51.7249975 132.505,52.235 C133.195003,52.7450026 134.039995,53 135.04,53 C136.100005,53 137.169995,52.6700033 138.25,52.01 L139.72,54.68 C138.959996,55.2000026 138.115005,55.6099985 137.185,55.91 C136.254995,56.2100015 135.340004,56.36 134.44,56.36 Z M131.14,46.94 L136.51,46.94 C136.51,46.0999958 136.320002,45.4200026 135.94,44.9 C135.559998,44.3799974 134.920005,44.12 134.02,44.12 C133.319997,44.12 132.705003,44.3499977 132.175,44.81 C131.644997,45.2700023 131.300001,45.9799952 131.14,46.94 Z M143.32,56 L143.32,41.12 L146.92,41.12 L147.22,43.01 L147.34,43.01 C147.980003,42.409997 148.679996,41.8850022 149.44,41.435 C150.200004,40.9849977 151.089995,40.76 152.11,40.76 C153.730008,40.76 154.904996,41.2899947 155.635,42.35 C156.365004,43.4100053 156.73,44.8799906 156.73,46.76 L156.73,56 L152.32,56 L152.32,47.33 C152.32,46.2499946 152.175001,45.510002 151.885,45.11 C151.594999,44.709998 151.130003,44.51 150.49,44.51 C149.929997,44.51 149.450002,44.6349988 149.05,44.885 C148.649998,45.1350012 148.210002,45.4899977 147.73,45.95 L147.73,56 L143.32,56 Z M166.21,56.36 C165.289995,56.36 164.505003,56.2200014 163.855,55.94 C163.204997,55.6599986 162.675002,55.2700025 162.265,54.77 C161.854998,54.2699975 161.555001,53.6650035 161.365,52.955 C161.174999,52.2449965 161.08,51.4600043 161.08,50.6 L161.08,44.57 L159.04,44.57 L159.04,41.3 L161.32,41.12 L161.83,37.16 L165.49,37.16 L165.49,41.12 L169.06,41.12 L169.06,44.57 L165.49,44.57 L165.49,50.54 C165.49,51.3800042 165.664998,51.9849981 166.015,52.355 C166.365002,52.7250018 166.829997,52.91 167.41,52.91 C167.650001,52.91 167.894999,52.8800003 168.145,52.82 C168.395001,52.7599997 168.619999,52.6900004 168.82,52.61 L169.51,55.82 C169.109998,55.9400006 168.640003,56.0599994 168.1,56.18 C167.559997,56.3000006 166.930004,56.36 166.21,56.36 Z M6.31,86 L6.31,66.44 L13.03,66.44 C14.1100054,66.44 15.1199953,66.544999 16.06,66.755 C17.0000047,66.965001 17.8199965,67.3149976 18.52,67.805 C19.2200035,68.2950024 19.774998,68.9449959 20.185,69.755 C20.5950021,70.565004 20.8,71.5599941 20.8,72.74 C20.8,73.8800057 20.5950021,74.8699958 20.185,75.71 C19.774998,76.5500042 19.2200035,77.2399973 18.52,77.78 C17.8199965,78.3200027 17.0100046,78.7199987 16.09,78.98 C15.1699954,79.2400013 14.1900052,79.37 13.15,79.37 L10.72,79.37 L10.72,86 L6.31,86 Z M10.72,75.86 L12.88,75.86 C15.280012,75.86 16.48,74.8200104 16.48,72.74 C16.48,71.7199949 16.1600032,71.0000021 15.52,70.58 C14.8799968,70.1599979 13.960006,69.95 12.76,69.95 L10.72,69.95 L10.72,75.86 Z M23.83,86 L23.83,71.12 L27.43,71.12 L27.73,73.73 L27.85,73.73 C28.3900027,72.7099949 29.0399962,71.9600024 29.8,71.48 C30.5600038,70.9999976 31.3199962,70.76 32.08,70.76 C32.5000021,70.76 32.8449987,70.7849997 33.115,70.835 C33.3850014,70.8850003 33.6299989,70.9599995 33.85,71.06 L33.13,74.87 C32.8499986,74.7899996 32.5900012,74.7300002 32.35,74.69 C32.1099988,74.6499998 31.8300016,74.63 31.51,74.63 C30.9499972,74.63 30.3650031,74.829998 29.755,75.23 C29.144997,75.630002 28.640002,76.3399949 28.24,77.36 L28.24,86 L23.83,86 Z M42.16,86.36 C41.2199953,86.36 40.3100044,86.1850017 39.43,85.835 C38.5499956,85.4849982 37.7750033,84.9800033 37.105,84.32 C36.4349967,83.6599967 35.900002,82.8450048 35.5,81.875 C35.099998,80.9049951 34.9,79.8000062 34.9,78.56 C34.9,77.3199938 35.099998,76.2150048 35.5,75.245 C35.900002,74.2749951 36.4349967,73.4600033 37.105,72.8 C37.7750033,72.1399967 38.5499956,71.6350017 39.43,71.285 C40.3100044,70.9349982 41.2199953,70.76 42.16,70.76 C43.1000047,70.76 44.0049956,70.9349982 44.875,71.285 C45.7450044,71.6350017 46.5149967,72.1399967 47.185,72.8 C47.8550034,73.4600033 48.389998,74.2749951 48.79,75.245 C49.190002,76.2150048 49.39,77.3199938 49.39,78.56 C49.39,79.8000062 49.190002,80.9049951 48.79,81.875 C48.389998,82.8450048 47.8550034,83.6599967 47.185,84.32 C46.5149967,84.9800033 45.7450044,85.4849982 44.875,85.835 C44.0049956,86.1850017 43.1000047,86.36 42.16,86.36 Z M42.16,82.79 C43.0600045,82.79 43.7399977,82.4100038 44.2,81.65 C44.6600023,80.8899962 44.89,79.8600065 44.89,78.56 C44.89,77.2599935 44.6600023,76.2300038 44.2,75.47 C43.7399977,74.7099962 43.0600045,74.33 42.16,74.33 C41.2399954,74.33 40.5550023,74.7099962 40.105,75.47 C39.6549977,76.2300038 39.43,77.2599935 39.43,78.56 C39.43,79.8600065 39.6549977,80.8899962 40.105,81.65 C40.5550023,82.4100038 41.2399954,82.79 42.16,82.79 Z M57.73,86.36 C56.8099954,86.36 55.9750038,86.1800018 55.225,85.82 C54.4749963,85.4599982 53.8350027,84.9450034 53.305,84.275 C52.7749974,83.6049967 52.3650015,82.7900048 52.075,81.83 C51.7849986,80.8699952 51.64,79.7800061 51.64,78.56 C51.64,77.3399939 51.8149983,76.2500048 52.165,75.29 C52.5150018,74.3299952 52.9749972,73.5150034 53.545,72.845 C54.1150029,72.1749967 54.7749963,71.6600018 55.525,71.3 C56.2750038,70.9399982 57.0399961,70.76 57.82,70.76 C58.6600042,70.76 59.3499973,70.8999986 59.89,71.18 C60.4300027,71.4600014 60.9599974,71.8399976 61.48,72.32 L61.3,70.04 L61.3,64.97 L65.71,64.97 L65.71,86 L62.11,86 L61.81,84.53 L61.69,84.53 C61.1699974,85.0500026 60.5600035,85.4849983 59.86,85.835 C59.1599965,86.1850018 58.4500036,86.36 57.73,86.36 Z M58.87,82.76 C59.3500024,82.76 59.784998,82.660001 60.175,82.46 C60.5650019,82.259999 60.9399982,81.9100025 61.3,81.41 L61.3,75.32 C60.899998,74.9599982 60.4900021,74.7100007 60.07,74.57 C59.6499979,74.4299993 59.240002,74.36 58.84,74.36 C58.1399965,74.36 57.5200027,74.6949967 56.98,75.365 C56.4399973,76.0350033 56.17,77.0799929 56.17,78.5 C56.17,79.9800074 56.4049976,81.0599966 56.875,81.74 C57.3450024,82.4200034 58.0099957,82.76 58.87,82.76 Z M74.08,86.36 C72.4599919,86.36 71.2850037,85.8300053 70.555,84.77 C69.8249964,83.7099947 69.46,82.2400094 69.46,80.36 L69.46,71.12 L73.87,71.12 L73.87,79.79 C73.87,80.8700054 74.0199985,81.609998 74.32,82.01 C74.6200015,82.410002 75.0899968,82.61 75.73,82.61 C76.2900028,82.61 76.7599981,82.4800013 77.14,82.22 C77.5200019,81.9599987 77.9299978,81.5400029 78.37,80.96 L78.37,71.12 L82.78,71.12 L82.78,86 L79.18,86 L78.85,83.93 L78.76,83.93 C78.1199968,84.6900038 77.4350037,85.2849979 76.705,85.715 C75.9749964,86.1450022 75.1000051,86.36 74.08,86.36 Z M93.13,86.36 C92.0899948,86.36 91.1250045,86.1850017 90.235,85.835 C89.3449956,85.4849982 88.5700033,84.9800033 87.91,84.32 C87.2499967,83.6599967 86.7300019,82.8450048 86.35,81.875 C85.9699981,80.9049951 85.78,79.8000062 85.78,78.56 C85.78,77.3199938 85.9899979,76.2150048 86.41,75.245 C86.8300021,74.2749951 87.3949965,73.4600033 88.105,72.8 C88.8150036,72.1399967 89.6399953,71.6350017 90.58,71.285 C91.5200047,70.9349982 92.4999949,70.76 93.52,70.76 C94.4400046,70.76 95.2549965,70.9099985 95.965,71.21 C96.6750035,71.5100015 97.3099972,71.8899977 97.87,72.35 L95.8,75.2 C95.0999965,74.6199971 94.4300032,74.33 93.79,74.33 C92.7099946,74.33 91.8600031,74.7099962 91.24,75.47 C90.6199969,76.2300038 90.31,77.2599935 90.31,78.56 C90.31,79.8600065 90.6249969,80.8899962 91.255,81.65 C91.8850032,82.4100038 92.6799952,82.79 93.64,82.79 C94.1200024,82.79 94.5849977,82.685001 95.035,82.475 C95.4850022,82.2649989 95.909998,82.0100015 96.31,81.71 L98.05,84.59 C97.3099963,85.2300032 96.5100043,85.6849986 95.65,85.955 C94.7899957,86.2250013 93.9500041,86.36 93.13,86.36 Z M106.39,86.36 C105.469995,86.36 104.685003,86.2200014 104.035,85.94 C103.384997,85.6599986 102.855002,85.2700025 102.445,84.77 C102.034998,84.2699975 101.735001,83.6650035 101.545,82.955 C101.354999,82.2449965 101.26,81.4600043 101.26,80.6 L101.26,74.57 L99.22,74.57 L99.22,71.3 L101.5,71.12 L102.01,67.16 L105.67,67.16 L105.67,71.12 L109.24,71.12 L109.24,74.57 L105.67,74.57 L105.67,80.54 C105.67,81.3800042 105.844998,81.9849981 106.195,82.355 C106.545002,82.7250018 107.009997,82.91 107.59,82.91 C107.830001,82.91 108.074999,82.8800003 108.325,82.82 C108.575001,82.7599997 108.799999,82.6900004 109,82.61 L109.69,85.82 C109.289998,85.9400006 108.820003,86.0599994 108.28,86.18 C107.739997,86.3000006 107.110004,86.36 106.39,86.36 Z M116.53,86.36 C115.549995,86.36 114.545005,86.1700019 113.515,85.79 C112.484995,85.4099981 111.590004,84.9100031 110.83,84.29 L112.81,81.53 C113.490003,82.0500026 114.139997,82.4399987 114.76,82.7 C115.380003,82.9600013 116.009997,83.09 116.65,83.09 C117.310003,83.09 117.789998,82.9800011 118.09,82.76 C118.390002,82.5399989 118.54,82.230002 118.54,81.83 C118.54,81.5899988 118.455001,81.3750009 118.285,81.185 C118.114999,80.994999 117.885001,80.8200008 117.595,80.66 C117.304999,80.4999992 116.980002,80.3550006 116.62,80.225 C116.259998,80.0949993 115.890002,79.9500008 115.51,79.79 C115.049998,79.6099991 114.590002,79.4000012 114.13,79.16 C113.669998,78.9199988 113.250002,78.6250017 112.87,78.275 C112.489998,77.9249982 112.180001,77.5150023 111.94,77.045 C111.699999,76.5749976 111.58,76.0300031 111.58,75.41 C111.58,74.7299966 111.714999,74.1000029 111.985,73.52 C112.255001,72.9399971 112.639998,72.450002 113.14,72.05 C113.640002,71.649998 114.239997,71.3350011 114.94,71.105 C115.640003,70.8749988 116.419996,70.76 117.28,70.76 C118.420006,70.76 119.419996,70.954998 120.28,71.345 C121.140004,71.7350019 121.889997,72.1699976 122.53,72.65 L120.55,75.29 C120.009997,74.889998 119.480003,74.5800011 118.96,74.36 C118.439997,74.1399989 117.920003,74.03 117.4,74.03 C116.279994,74.03 115.72,74.4199961 115.72,75.2 C115.72,75.4400012 115.799999,75.6449991 115.96,75.815 C116.120001,75.9850008 116.334999,76.1399993 116.605,76.28 C116.875001,76.4200007 117.184998,76.5549993 117.535,76.685 C117.885002,76.8150006 118.249998,76.9499993 118.63,77.09 C119.110002,77.2700009 119.584998,77.4749988 120.055,77.705 C120.525002,77.9350011 120.954998,78.2199983 121.345,78.56 C121.735002,78.9000017 122.049999,79.3149975 122.29,79.805 C122.530001,80.2950024 122.65,80.8799966 122.65,81.56 C122.65,82.2400034 122.520001,82.8699971 122.26,83.45 C121.999999,84.0300029 121.610003,84.5349978 121.09,84.965 C120.569997,85.3950021 119.930004,85.7349987 119.17,85.985 C118.409996,86.2350012 117.530005,86.36 116.53,86.36 Z" id="Open-Government-Prod" fill="#393939"></path>
    </g>
</svg>