<?xml version="1.0" encoding="UTF-8"?>
<svg width="180px" height="100px" viewBox="0 0 180 100" version="1.1" xmlns="http://www.w3.org/2000/svg" xmlns:xlink="http://www.w3.org/1999/xlink">
    <!-- Generator: Sketch 49.3 (51167) - http://www.bohemiancoding.com/sketch -->
    <title>teamlogo_1</title>
    <desc>Created with Sketch.</desc>
    <defs></defs>
    <g id="teamlogo_1" stroke="none" stroke-width="1" fill="none" fill-rule="evenodd">
        <path d="M10.26,26.36 C8.9399934,26.36 7.73500545,26.1250024 6.645,25.655 C5.55499455,25.1849976 4.6200039,24.5100044 3.84,23.63 C3.0599961,22.7499956 2.45500215,21.6800063 2.025,20.42 C1.59499785,19.1599937 1.38,17.730008 1.38,16.13 C1.38,14.529992 1.59499785,13.1050063 2.025,11.855 C2.45500215,10.6049938 3.0599961,9.55500425 3.84,8.705 C4.6200039,7.85499575 5.55499455,7.20500225 6.645,6.755 C7.73500545,6.30499775 8.9399934,6.08 10.26,6.08 C11.5800066,6.08 12.7849946,6.30499775 13.875,6.755 C14.9650055,7.20500225 15.8999961,7.8599957 16.68,8.72 C17.4600039,9.5800043 18.0649978,10.6349938 18.495,11.885 C18.9250022,13.1350063 19.14,14.5499921 19.14,16.13 C19.14,17.730008 18.9250022,19.1599937 18.495,20.42 C18.0649978,21.6800063 17.4600039,22.7499956 16.68,23.63 C15.8999961,24.5100044 14.9650055,25.1849976 13.875,25.655 C12.7849946,26.1250024 11.5800066,26.36 10.26,26.36 Z M10.26,22.55 C11.6000067,22.55 12.6599961,21.9750057 13.44,20.825 C14.2200039,19.6749942 14.61,18.1100099 14.61,16.13 C14.61,14.1699902 14.2200039,12.6400055 13.44,11.54 C12.6599961,10.4399945 11.6000067,9.89 10.26,9.89 C8.9199933,9.89 7.8600039,10.4399945 7.08,11.54 C6.2999961,12.6400055 5.91,14.1699902 5.91,16.13 C5.91,18.1100099 6.2999961,19.6749942 7.08,20.825 C7.8600039,21.9750057 8.9199933,22.55 10.26,22.55 Z M22.47,31.52 L22.47,11.12 L26.07,11.12 L26.37,12.59 L26.49,12.59 C27.0700029,12.0699974 27.7249964,11.6350018 28.455,11.285 C29.1850037,10.9349983 29.9399961,10.76 30.72,10.76 C31.6200045,10.76 32.4299964,10.9399982 33.15,11.3 C33.8700036,11.6600018 34.4799975,12.1699967 34.98,12.83 C35.4800025,13.4900033 35.8649986,14.2849954 36.135,15.215 C36.4050013,16.1450047 36.54,17.1799943 36.54,18.32 C36.54,19.6000064 36.3650017,20.734995 36.015,21.725 C35.6649983,22.7150049 35.1950029,23.5549965 34.605,24.245 C34.014997,24.9350035 33.3450038,25.4599982 32.595,25.82 C31.8449963,26.1800018 31.070004,26.36 30.27,26.36 C29.6299968,26.36 29.010003,26.2250013 28.41,25.955 C27.809997,25.6849986 27.2500026,25.3000025 26.73,24.8 L26.88,27.17 L26.88,31.52 L22.47,31.52 Z M29.25,22.76 C30.0100038,22.76 30.6599973,22.4150035 31.2,21.725 C31.7400027,21.0349966 32.01,19.9200077 32.01,18.38 C32.01,15.6999866 31.1500086,14.36 29.43,14.36 C28.5699957,14.36 27.7200042,14.8099955 26.88,15.71 L26.88,21.8 C27.280002,22.1600018 27.679998,22.4099993 28.08,22.55 C28.480002,22.6900007 28.8699981,22.76 29.25,22.76 Z M46.32,26.36 C45.2599947,26.36 44.2700046,26.1850017 43.35,25.835 C42.4299954,25.4849983 41.6300034,24.9750034 40.95,24.305 C40.2699966,23.6349967 39.7400019,22.8200048 39.36,21.86 C38.9799981,20.8999952 38.79,19.8000062 38.79,18.56 C38.79,17.359994 38.989998,16.2750049 39.39,15.305 C39.790002,14.3349951 40.3149967,13.5150034 40.965,12.845 C41.6150032,12.1749966 42.3599958,11.6600018 43.2,11.3 C44.0400042,10.9399982 44.9099955,10.76 45.81,10.76 C46.8700053,10.76 47.794996,10.9399982 48.585,11.3 C49.3750039,11.6600018 50.0349973,12.1599968 50.565,12.8 C51.0950026,13.4400032 51.4899987,14.1949957 51.75,15.065 C52.0100013,15.9350043 52.14,16.8799949 52.14,17.9 C52.14,18.300002 52.1200002,18.6799982 52.08,19.04 C52.0399998,19.4000018 52.0000002,19.6699991 51.96,19.85 L43.05,19.85 C43.250001,20.9300054 43.6949965,21.7249974 44.385,22.235 C45.0750034,22.7450025 45.919995,23 46.92,23 C47.9800053,23 49.0499946,22.6700033 50.13,22.01 L51.6,24.68 C50.8399962,25.2000026 49.9950046,25.6099985 49.065,25.91 C48.1349953,26.2100015 47.2200045,26.36 46.32,26.36 Z M43.02,16.94 L48.39,16.94 C48.39,16.0999958 48.2000019,15.4200026 47.82,14.9 C47.4399981,14.3799974 46.8000045,14.12 45.9,14.12 C45.1999965,14.12 44.5850026,14.3499977 44.055,14.81 C43.5249973,15.2700023 43.1800008,15.9799952 43.02,16.94 Z M55.2,26 L55.2,11.12 L58.8,11.12 L59.1,13.01 L59.22,13.01 C59.8600032,12.409997 60.5599962,11.8850022 61.32,11.435 C62.0800038,10.9849978 62.9699949,10.76 63.99,10.76 C65.6100081,10.76 66.7849963,11.2899947 67.515,12.35 C68.2450036,13.4100053 68.61,14.8799906 68.61,16.76 L68.61,26 L64.2,26 L64.2,17.33 C64.2,16.2499946 64.0550014,15.510002 63.765,15.11 C63.4749985,14.709998 63.0100032,14.51 62.37,14.51 C61.8099972,14.51 61.330002,14.6349988 60.93,14.885 C60.529998,15.1350013 60.0900024,15.4899977 59.61,15.95 L59.61,26 L55.2,26 Z M10.95,56.36 C9.6099933,56.36 8.35500585,56.1450021 7.185,55.715 C6.01499415,55.2849978 5.0000043,54.6500042 4.14,53.81 C3.2799957,52.9699958 2.60500245,51.9250062 2.115,50.675 C1.62499755,49.4249937 1.38,47.9800082 1.38,46.34 C1.38,44.7199919 1.6299975,43.2750063 2.13,42.005 C2.6300025,40.7349936 3.31499565,39.6600044 4.185,38.78 C5.05500435,37.8999956 6.0699942,37.2300023 7.23,36.77 C8.3900058,36.3099977 9.6199935,36.08 10.92,36.08 C12.3400071,36.08 13.5599949,36.3399974 14.58,36.86 C15.6000051,37.3800026 16.4299968,37.9699967 17.07,38.63 L14.76,41.45 C14.2599975,41.0099978 13.7300028,40.6400015 13.17,40.34 C12.6099972,40.0399985 11.9100042,39.89 11.07,39.89 C10.3099962,39.89 9.61500315,40.0349985 8.985,40.325 C8.35499685,40.6150014 7.8100023,41.0299973 7.35,41.57 C6.8899977,42.1100027 6.53500125,42.7699961 6.285,43.55 C6.03499875,44.3300039 5.91,45.2099951 5.91,46.19 C5.91,48.2100101 6.36499545,49.7749945 7.275,50.885 C8.18500455,51.9950055 9.5599908,52.55 11.4,52.55 C11.800002,52.55 12.1899981,52.5000005 12.57,52.4 C12.9500019,52.2999995 13.2599988,52.150001 13.5,51.95 L13.5,48.59 L10.26,48.59 L10.26,44.99 L17.4,44.99 L17.4,53.99 C16.7199966,54.6500033 15.8200056,55.2099977 14.7,55.67 C13.5799944,56.1300023 12.3300069,56.36 10.95,56.36 Z M27.48,56.36 C26.5399953,56.36 25.6300044,56.1850018 24.75,55.835 C23.8699956,55.4849983 23.0950034,54.9800033 22.425,54.32 C21.7549967,53.6599967 21.220002,52.8450049 20.82,51.875 C20.419998,50.9049952 20.22,49.8000062 20.22,48.56 C20.22,47.3199938 20.419998,46.2150049 20.82,45.245 C21.220002,44.2749952 21.7549967,43.4600033 22.425,42.8 C23.0950034,42.1399967 23.8699956,41.6350018 24.75,41.285 C25.6300044,40.9349982 26.5399953,40.76 27.48,40.76 C28.4200047,40.76 29.3249957,40.9349982 30.195,41.285 C31.0650044,41.6350018 31.8349967,42.1399967 32.505,42.8 C33.1750034,43.4600033 33.709998,44.2749952 34.11,45.245 C34.510002,46.2150049 34.71,47.3199938 34.71,48.56 C34.71,49.8000062 34.510002,50.9049952 34.11,51.875 C33.709998,52.8450049 33.1750034,53.6599967 32.505,54.32 C31.8349967,54.9800033 31.0650044,55.4849983 30.195,55.835 C29.3249957,56.1850018 28.4200047,56.36 27.48,56.36 Z M27.48,52.79 C28.3800045,52.79 29.0599977,52.4100038 29.52,51.65 C29.9800023,50.8899962 30.21,49.8600065 30.21,48.56 C30.21,47.2599935 29.9800023,46.2300038 29.52,45.47 C29.0599977,44.7099962 28.3800045,44.33 27.48,44.33 C26.5599954,44.33 25.8750023,44.7099962 25.425,45.47 C24.9749978,46.2300038 24.75,47.2599935 24.75,48.56 C24.75,49.8600065 24.9749978,50.8899962 25.425,51.65 C25.8750023,52.4100038 26.5599954,52.79 27.48,52.79 Z M41.16,56 L36.15,41.12 L40.59,41.12 L42.51,48.14 C42.710001,48.8800037 42.9049991,49.6349961 43.095,50.405 C43.2850009,51.1750039 43.479999,51.9499961 43.68,52.73 L43.8,52.73 C43.9800009,51.9499961 44.164999,51.1750039 44.355,50.405 C44.545001,49.6349961 44.739999,48.8800037 44.94,48.14 L46.89,41.12 L51.12,41.12 L46.26,56 L41.16,56 Z M60.09,56.36 C59.0299947,56.36 58.0400046,56.1850018 57.12,55.835 C56.1999954,55.4849983 55.4000034,54.9750034 54.72,54.305 C54.0399966,53.6349967 53.5100019,52.8200048 53.13,51.86 C52.7499981,50.8999952 52.56,49.8000062 52.56,48.56 C52.56,47.359994 52.759998,46.2750049 53.16,45.305 C53.560002,44.3349952 54.0849967,43.5150034 54.735,42.845 C55.3850032,42.1749967 56.1299958,41.6600018 56.97,41.3 C57.8100042,40.9399982 58.6799955,40.76 59.58,40.76 C60.6400053,40.76 61.564996,40.9399982 62.355,41.3 C63.1450039,41.6600018 63.8049973,42.1599968 64.335,42.8 C64.8650026,43.4400032 65.2599987,44.1949957 65.52,45.065 C65.7800013,45.9350044 65.91,46.8799949 65.91,47.9 C65.91,48.300002 65.8900002,48.6799982 65.85,49.04 C65.8099998,49.4000018 65.7700002,49.6699991 65.73,49.85 L56.82,49.85 C57.020001,50.9300054 57.4649965,51.7249975 58.155,52.235 C58.8450034,52.7450026 59.689995,53 60.69,53 C61.7500053,53 62.8199946,52.6700033 63.9,52.01 L65.37,54.68 C64.6099962,55.2000026 63.7650046,55.6099985 62.835,55.91 C61.9049954,56.2100015 60.9900045,56.36 60.09,56.36 Z M56.79,46.94 L62.16,46.94 C62.16,46.0999958 61.9700019,45.4200026 61.59,44.9 C61.2099981,44.3799974 60.5700045,44.12 59.67,44.12 C58.9699965,44.12 58.3550027,44.3499977 57.825,44.81 C57.2949973,45.2700023 56.9500008,45.9799952 56.79,46.94 Z M68.97,56 L68.97,41.12 L72.57,41.12 L72.87,43.73 L72.99,43.73 C73.5300027,42.7099949 74.1799962,41.9600024 74.94,41.48 C75.7000038,40.9999976 76.4599962,40.76 77.22,40.76 C77.6400021,40.76 77.9849986,40.7849997 78.255,40.835 C78.5250013,40.8850002 78.7699989,40.9599995 78.99,41.06 L78.27,44.87 C77.9899986,44.7899996 77.7300012,44.7300002 77.49,44.69 C77.2499988,44.6499998 76.9700016,44.63 76.65,44.63 C76.0899972,44.63 75.505003,44.829998 74.895,45.23 C74.2849969,45.630002 73.780002,46.3399949 73.38,47.36 L73.38,56 L68.97,56 Z M80.91,56 L80.91,41.12 L84.51,41.12 L84.81,43.01 L84.93,43.01 C85.5700032,42.409997 86.2699962,41.8850022 87.03,41.435 C87.7900038,40.9849977 88.6799949,40.76 89.7,40.76 C91.3200081,40.76 92.4949963,41.2899947 93.225,42.35 C93.9550036,43.4100053 94.32,44.8799906 94.32,46.76 L94.32,56 L89.91,56 L89.91,47.33 C89.91,46.2499946 89.7650014,45.510002 89.475,45.11 C89.1849985,44.709998 88.7200032,44.51 88.08,44.51 C87.5199972,44.51 87.040002,44.6349988 86.64,44.885 C86.239998,45.1350012 85.8000024,45.4899977 85.32,45.95 L85.32,56 L80.91,56 Z M98.07,56 L98.07,41.12 L101.67,41.12 L101.97,43.04 L102.09,43.04 C102.710003,42.4199969 103.369996,41.8850022 104.07,41.435 C104.770003,40.9849977 105.609995,40.76 106.59,40.76 C107.650005,40.76 108.504997,40.9749978 109.155,41.405 C109.805003,41.8350022 110.319998,42.449996 110.7,43.25 C111.360003,42.5699966 112.054996,41.9850025 112.785,41.495 C113.515004,41.0049975 114.379995,40.76 115.38,40.76 C116.980008,40.76 118.154996,41.2949946 118.905,42.365 C119.655004,43.4350053 120.03,44.8999907 120.03,46.76 L120.03,56 L115.62,56 L115.62,47.33 C115.62,46.2499946 115.475001,45.510002 115.185,45.11 C114.894999,44.709998 114.430003,44.51 113.79,44.51 C113.049996,44.51 112.200005,44.9899952 111.24,45.95 L111.24,56 L106.83,56 L106.83,47.33 C106.83,46.2499946 106.685001,45.510002 106.395,45.11 C106.104999,44.709998 105.640003,44.51 105,44.51 C104.239996,44.51 103.400005,44.9899952 102.48,45.95 L102.48,56 L98.07,56 Z M130.44,56.36 C129.379995,56.36 128.390005,56.1850018 127.47,55.835 C126.549995,55.4849983 125.750003,54.9750034 125.07,54.305 C124.389997,53.6349967 123.860002,52.8200048 123.48,51.86 C123.099998,50.8999952 122.91,49.8000062 122.91,48.56 C122.91,47.359994 123.109998,46.2750049 123.51,45.305 C123.910002,44.3349952 124.434997,43.5150034 125.085,42.845 C125.735003,42.1749967 126.479996,41.6600018 127.32,41.3 C128.160004,40.9399982 129.029995,40.76 129.93,40.76 C130.990005,40.76 131.914996,40.9399982 132.705,41.3 C133.495004,41.6600018 134.154997,42.1599968 134.685,42.8 C135.215003,43.4400032 135.609999,44.1949957 135.87,45.065 C136.130001,45.9350044 136.26,46.8799949 136.26,47.9 C136.26,48.300002 136.24,48.6799982 136.2,49.04 C136.16,49.4000018 136.12,49.6699991 136.08,49.85 L127.17,49.85 C127.370001,50.9300054 127.814997,51.7249975 128.505,52.235 C129.195003,52.7450026 130.039995,53 131.04,53 C132.100005,53 133.169995,52.6700033 134.25,52.01 L135.72,54.68 C134.959996,55.2000026 134.115005,55.6099985 133.185,55.91 C132.254995,56.2100015 131.340004,56.36 130.44,56.36 Z M127.14,46.94 L132.51,46.94 C132.51,46.0999958 132.320002,45.4200026 131.94,44.9 C131.559998,44.3799974 130.920004,44.12 130.02,44.12 C129.319996,44.12 128.705003,44.3499977 128.175,44.81 C127.644997,45.2700023 127.300001,45.9799952 127.14,46.94 Z M139.32,56 L139.32,41.12 L142.92,41.12 L143.22,43.01 L143.34,43.01 C143.980003,42.409997 144.679996,41.8850022 145.44,41.435 C146.200004,40.9849977 147.089995,40.76 148.11,40.76 C149.730008,40.76 150.904996,41.2899947 151.635,42.35 C152.365004,43.4100053 152.73,44.8799906 152.73,46.76 L152.73,56 L148.32,56 L148.32,47.33 C148.32,46.2499946 148.175001,45.510002 147.885,45.11 C147.594999,44.709998 147.130003,44.51 146.49,44.51 C145.929997,44.51 145.450002,44.6349988 145.05,44.885 C144.649998,45.1350012 144.210002,45.4899977 143.73,45.95 L143.73,56 L139.32,56 Z M162.21,56.36 C161.289995,56.36 160.505003,56.2200014 159.855,55.94 C159.204997,55.6599986 158.675002,55.2700025 158.265,54.77 C157.854998,54.2699975 157.555001,53.6650036 157.365,52.955 C157.174999,52.2449965 157.08,51.4600043 157.08,50.6 L157.08,44.57 L155.04,44.57 L155.04,41.3 L157.32,41.12 L157.83,37.16 L161.49,37.16 L161.49,41.12 L165.06,41.12 L165.06,44.57 L161.49,44.57 L161.49,50.54 C161.49,51.3800042 161.664998,51.9849981 162.015,52.355 C162.365002,52.7250018 162.829997,52.91 163.41,52.91 C163.650001,52.91 163.894999,52.8800003 164.145,52.82 C164.395001,52.7599997 164.619999,52.6900004 164.82,52.61 L165.51,55.82 C165.109998,55.9400006 164.640003,56.0599994 164.1,56.18 C163.559997,56.3000006 162.930004,56.36 162.21,56.36 Z M2.31,86 L2.31,66.44 L9.03,66.44 C10.1100054,66.44 11.1199953,66.544999 12.06,66.755 C13.0000047,66.965001 13.8199965,67.3149976 14.52,67.805 C15.2200035,68.2950024 15.774998,68.9449959 16.185,69.755 C16.5950021,70.565004 16.8,71.5599941 16.8,72.74 C16.8,73.8800057 16.5950021,74.8699958 16.185,75.71 C15.774998,76.5500042 15.2200035,77.2399973 14.52,77.78 C13.8199965,78.3200027 13.0100046,78.7199987 12.09,78.98 C11.1699954,79.2400013 10.1900052,79.37 9.15,79.37 L6.72,79.37 L6.72,86 L2.31,86 Z M6.72,75.86 L8.88,75.86 C11.280012,75.86 12.48,74.8200104 12.48,72.74 C12.48,71.7199949 12.1600032,71.0000021 11.52,70.58 C10.8799968,70.1599979 9.960006,69.95 8.76,69.95 L6.72,69.95 L6.72,75.86 Z M19.83,86 L19.83,71.12 L23.43,71.12 L23.73,73.73 L23.85,73.73 C24.3900027,72.7099949 25.0399962,71.9600024 25.8,71.48 C26.5600038,70.9999976 27.3199962,70.76 28.08,70.76 C28.5000021,70.76 28.8449987,70.7849997 29.115,70.835 C29.3850013,70.8850003 29.6299989,70.9599995 29.85,71.06 L29.13,74.87 C28.8499986,74.7899996 28.5900012,74.7300002 28.35,74.69 C28.1099988,74.6499998 27.8300016,74.63 27.51,74.63 C26.9499972,74.63 26.3650031,74.829998 25.755,75.23 C25.144997,75.630002 24.640002,76.3399949 24.24,77.36 L24.24,86 L19.83,86 Z M38.16,86.36 C37.2199953,86.36 36.3100044,86.1850017 35.43,85.835 C34.5499956,85.4849982 33.7750034,84.9800033 33.105,84.32 C32.4349967,83.6599967 31.900002,82.8450048 31.5,81.875 C31.099998,80.9049951 30.9,79.8000062 30.9,78.56 C30.9,77.3199938 31.099998,76.2150048 31.5,75.245 C31.900002,74.2749951 32.4349967,73.4600033 33.105,72.8 C33.7750034,72.1399967 34.5499956,71.6350017 35.43,71.285 C36.3100044,70.9349982 37.2199953,70.76 38.16,70.76 C39.1000047,70.76 40.0049957,70.9349982 40.875,71.285 C41.7450044,71.6350017 42.5149967,72.1399967 43.185,72.8 C43.8550034,73.4600033 44.389998,74.2749951 44.79,75.245 C45.190002,76.2150048 45.39,77.3199938 45.39,78.56 C45.39,79.8000062 45.190002,80.9049951 44.79,81.875 C44.389998,82.8450048 43.8550034,83.6599967 43.185,84.32 C42.5149967,84.9800033 41.7450044,85.4849982 40.875,85.835 C40.0049957,86.1850017 39.1000047,86.36 38.16,86.36 Z M38.16,82.79 C39.0600045,82.79 39.7399977,82.4100038 40.2,81.65 C40.6600023,80.8899962 40.89,79.8600065 40.89,78.56 C40.89,77.2599935 40.6600023,76.2300038 40.2,75.47 C39.7399977,74.7099962 39.0600045,74.33 38.16,74.33 C37.2399954,74.33 36.5550023,74.7099962 36.105,75.47 C35.6549977,76.2300038 35.43,77.2599935 35.43,78.56 C35.43,79.8600065 35.6549977,80.8899962 36.105,81.65 C36.5550023,82.4100038 37.2399954,82.79 38.16,82.79 Z M53.73,86.36 C52.8099954,86.36 51.9750038,86.1800018 51.225,85.82 C50.4749963,85.4599982 49.8350027,84.9450034 49.305,84.275 C48.7749973,83.6049967 48.3650015,82.7900048 48.075,81.83 C47.7849986,80.8699952 47.64,79.7800061 47.64,78.56 C47.64,77.3399939 47.8149983,76.2500048 48.165,75.29 C48.5150018,74.3299952 48.9749972,73.5150034 49.545,72.845 C50.1150029,72.1749967 50.7749963,71.6600018 51.525,71.3 C52.2750038,70.9399982 53.0399961,70.76 53.82,70.76 C54.6600042,70.76 55.3499973,70.8999986 55.89,71.18 C56.4300027,71.4600014 56.9599974,71.8399976 57.48,72.32 L57.3,70.04 L57.3,64.97 L61.71,64.97 L61.71,86 L58.11,86 L57.81,84.53 L57.69,84.53 C57.1699974,85.0500026 56.5600035,85.4849983 55.86,85.835 C55.1599965,86.1850018 54.4500036,86.36 53.73,86.36 Z M54.87,82.76 C55.3500024,82.76 55.784998,82.660001 56.175,82.46 C56.5650019,82.259999 56.9399982,81.9100025 57.3,81.41 L57.3,75.32 C56.899998,74.9599982 56.4900021,74.7100007 56.07,74.57 C55.6499979,74.4299993 55.240002,74.36 54.84,74.36 C54.1399965,74.36 53.5200027,74.6949967 52.98,75.365 C52.4399973,76.0350033 52.17,77.0799929 52.17,78.5 C52.17,79.9800074 52.4049976,81.0599966 52.875,81.74 C53.3450024,82.4200034 54.0099957,82.76 54.87,82.76 Z M70.08,86.36 C68.4599919,86.36 67.2850037,85.8300053 66.555,84.77 C65.8249964,83.7099947 65.46,82.2400094 65.46,80.36 L65.46,71.12 L69.87,71.12 L69.87,79.79 C69.87,80.8700054 70.0199985,81.609998 70.32,82.01 C70.6200015,82.410002 71.0899968,82.61 71.73,82.61 C72.2900028,82.61 72.7599981,82.4800013 73.14,82.22 C73.5200019,81.9599987 73.9299978,81.5400029 74.37,80.96 L74.37,71.12 L78.78,71.12 L78.78,86 L75.18,86 L74.85,83.93 L74.76,83.93 C74.1199968,84.6900038 73.4350037,85.2849979 72.705,85.715 C71.9749964,86.1450022 71.1000051,86.36 70.08,86.36 Z M89.13,86.36 C88.0899948,86.36 87.1250045,86.1850017 86.235,85.835 C85.3449956,85.4849982 84.5700033,84.9800033 83.91,84.32 C83.2499967,83.6599967 82.7300019,82.8450048 82.35,81.875 C81.9699981,80.9049951 81.78,79.8000062 81.78,78.56 C81.78,77.3199938 81.9899979,76.2150048 82.41,75.245 C82.8300021,74.2749951 83.3949965,73.4600033 84.105,72.8 C84.8150036,72.1399967 85.6399953,71.6350017 86.58,71.285 C87.5200047,70.9349982 88.4999949,70.76 89.52,70.76 C90.4400046,70.76 91.2549965,70.9099985 91.965,71.21 C92.6750035,71.5100015 93.3099972,71.8899977 93.87,72.35 L91.8,75.2 C91.0999965,74.6199971 90.4300032,74.33 89.79,74.33 C88.7099946,74.33 87.8600031,74.7099962 87.24,75.47 C86.6199969,76.2300038 86.31,77.2599935 86.31,78.56 C86.31,79.8600065 86.6249969,80.8899962 87.255,81.65 C87.8850032,82.4100038 88.6799952,82.79 89.64,82.79 C90.1200024,82.79 90.5849977,82.685001 91.035,82.475 C91.4850022,82.2649989 91.909998,82.0100015 92.31,81.71 L94.05,84.59 C93.3099963,85.2300032 92.5100043,85.6849986 91.65,85.955 C90.7899957,86.2250013 89.9500041,86.36 89.13,86.36 Z M102.39,86.36 C101.469995,86.36 100.685003,86.2200014 100.035,85.94 C99.3849967,85.6599986 98.855002,85.2700025 98.445,84.77 C98.0349979,84.2699975 97.7350009,83.6650036 97.545,82.955 C97.3549991,82.2449965 97.26,81.4600043 97.26,80.6 L97.26,74.57 L95.22,74.57 L95.22,71.3 L97.5,71.12 L98.01,67.16 L101.67,67.16 L101.67,71.12 L105.24,71.12 L105.24,74.57 L101.67,74.57 L101.67,80.54 C101.67,81.3800042 101.844998,81.9849982 102.195,82.355 C102.545002,82.7250018 103.009997,82.91 103.59,82.91 C103.830001,82.91 104.074999,82.8800003 104.325,82.82 C104.575001,82.7599997 104.799999,82.6900004 105,82.61 L105.69,85.82 C105.289998,85.9400006 104.820003,86.0599994 104.28,86.18 C103.739997,86.3000006 103.110004,86.36 102.39,86.36 Z M112.53,86.36 C111.549995,86.36 110.545005,86.1700019 109.515,85.79 C108.484995,85.4099981 107.590004,84.9100031 106.83,84.29 L108.81,81.53 C109.490003,82.0500026 110.139997,82.4399987 110.76,82.7 C111.380003,82.9600013 112.009997,83.09 112.65,83.09 C113.310003,83.09 113.789999,82.9800011 114.09,82.76 C114.390002,82.5399989 114.54,82.230002 114.54,81.83 C114.54,81.5899988 114.455001,81.3750009 114.285,81.185 C114.114999,80.994999 113.885001,80.8200008 113.595,80.66 C113.304999,80.4999992 112.980002,80.3550006 112.62,80.225 C112.259998,80.0949993 111.890002,79.9500008 111.51,79.79 C111.049998,79.6099991 110.590002,79.4000012 110.13,79.16 C109.669998,78.9199988 109.250002,78.6250017 108.87,78.275 C108.489998,77.9249982 108.180001,77.5150023 107.94,77.045 C107.699999,76.5749976 107.58,76.0300031 107.58,75.41 C107.58,74.7299966 107.714999,74.1000029 107.985,73.52 C108.255001,72.9399971 108.639998,72.450002 109.14,72.05 C109.640003,71.649998 110.239997,71.3350011 110.94,71.105 C111.640004,70.8749988 112.419996,70.76 113.28,70.76 C114.420006,70.76 115.419996,70.954998 116.28,71.345 C117.140004,71.7350019 117.889997,72.1699976 118.53,72.65 L116.55,75.29 C116.009997,74.889998 115.480003,74.5800011 114.96,74.36 C114.439997,74.1399989 113.920003,74.03 113.4,74.03 C112.279994,74.03 111.72,74.4199961 111.72,75.2 C111.72,75.4400012 111.799999,75.6449991 111.96,75.815 C112.120001,75.9850008 112.334999,76.1399993 112.605,76.28 C112.875001,76.4200007 113.184998,76.5549993 113.535,76.685 C113.885002,76.8150006 114.249998,76.9499993 114.63,77.09 C115.110002,77.2700009 115.584998,77.4749988 116.055,77.705 C116.525002,77.9350011 116.954998,78.2199983 117.345,78.56 C117.735002,78.9000017 118.049999,79.3149975 118.29,79.805 C118.530001,80.2950024 118.65,80.8799966 118.65,81.56 C118.65,82.2400034 118.520001,82.8699971 118.26,83.45 C117.999999,84.0300029 117.610003,84.5349978 117.09,84.965 C116.569997,85.3950021 115.930004,85.7349987 115.17,85.985 C114.409996,86.2350012 113.530005,86.36 112.53,86.36 Z" id="Open-Government-Prod" fill="#393939"></path>
    </g>
</svg>