<?xml version="1.0" encoding="UTF-8"?>
<svg width="250px" height="60px" viewBox="0 0 250 60" version="1.1" xmlns="http://www.w3.org/2000/svg" xmlns:xlink="http://www.w3.org/1999/xlink">
    <!-- Generator: Sketch 49.3 (51167) - http://www.bohemiancoding.com/sketch -->
    <title>teamlogo_2</title>
    <desc>Created with Sketch.</desc>
    <defs></defs>
    <g id="teamlogo_2" stroke="none" stroke-width="1" fill="none" fill-rule="evenodd">
        <path d="M10.26,26.36 C8.9399934,26.36 7.73500545,26.1250024 6.645,25.655 C5.55499455,25.1849976 4.6200039,24.5100044 3.84,23.63 C3.0599961,22.7499956 2.45500215,21.6800063 2.025,20.42 C1.59499785,19.1599937 1.38,17.730008 1.38,16.13 C1.38,14.529992 1.59499785,13.1050063 2.025,11.855 C2.45500215,10.6049938 3.0599961,9.55500425 3.84,8.705 C4.6200039,7.85499575 5.55499455,7.20500225 6.645,6.755 C7.73500545,6.30499775 8.9399934,6.08 10.26,6.08 C11.5800066,6.08 12.7849946,6.30499775 13.875,6.755 C14.9650055,7.20500225 15.8999961,7.8599957 16.68,8.72 C17.4600039,9.5800043 18.0649978,10.6349937 18.495,11.885 C18.9250022,13.1350063 19.14,14.5499921 19.14,16.13 C19.14,17.730008 18.9250022,19.1599937 18.495,20.42 C18.0649978,21.6800063 17.4600039,22.7499956 16.68,23.63 C15.8999961,24.5100044 14.9650055,25.1849976 13.875,25.655 C12.7849946,26.1250024 11.5800066,26.36 10.26,26.36 Z M10.26,22.55 C11.6000067,22.55 12.6599961,21.9750057 13.44,20.825 C14.2200039,19.6749942 14.61,18.1100099 14.61,16.13 C14.61,14.1699902 14.2200039,12.6400055 13.44,11.54 C12.6599961,10.4399945 11.6000067,9.89 10.26,9.89 C8.9199933,9.89 7.8600039,10.4399945 7.08,11.54 C6.2999961,12.6400055 5.91,14.1699902 5.91,16.13 C5.91,18.1100099 6.2999961,19.6749942 7.08,20.825 C7.8600039,21.9750057 8.9199933,22.55 10.26,22.55 Z M22.47,31.52 L22.47,11.12 L26.07,11.12 L26.37,12.59 L26.49,12.59 C27.0700029,12.0699974 27.7249963,11.6350018 28.455,11.285 C29.1850036,10.9349982 29.9399961,10.76 30.72,10.76 C31.6200045,10.76 32.4299964,10.9399982 33.15,11.3 C33.8700036,11.6600018 34.4799975,12.1699967 34.98,12.83 C35.4800025,13.4900033 35.8649986,14.2849954 36.135,15.215 C36.4050013,16.1450047 36.54,17.1799943 36.54,18.32 C36.54,19.6000064 36.3650017,20.7349951 36.015,21.725 C35.6649982,22.715005 35.1950029,23.5549965 34.605,24.245 C34.014997,24.9350034 33.3450038,25.4599982 32.595,25.82 C31.8449962,26.1800018 31.070004,26.36 30.27,26.36 C29.6299968,26.36 29.010003,26.2250013 28.41,25.955 C27.809997,25.6849986 27.2500026,25.3000025 26.73,24.8 L26.88,27.17 L26.88,31.52 L22.47,31.52 Z M29.25,22.76 C30.0100038,22.76 30.6599973,22.4150035 31.2,21.725 C31.7400027,21.0349966 32.01,19.9200077 32.01,18.38 C32.01,15.6999866 31.1500086,14.36 29.43,14.36 C28.5699957,14.36 27.7200042,14.8099955 26.88,15.71 L26.88,21.8 C27.280002,22.1600018 27.679998,22.4099993 28.08,22.55 C28.480002,22.6900007 28.8699981,22.76 29.25,22.76 Z M46.32,26.36 C45.2599947,26.36 44.2700046,26.1850017 43.35,25.835 C42.4299954,25.4849983 41.6300034,24.9750034 40.95,24.305 C40.2699966,23.6349966 39.7400019,22.8200048 39.36,21.86 C38.9799981,20.8999952 38.79,19.8000062 38.79,18.56 C38.79,17.359994 38.989998,16.2750049 39.39,15.305 C39.790002,14.3349951 40.3149967,13.5150034 40.965,12.845 C41.6150033,12.1749966 42.3599958,11.6600018 43.2,11.3 C44.0400042,10.9399982 44.9099955,10.76 45.81,10.76 C46.8700053,10.76 47.7949961,10.9399982 48.585,11.3 C49.3750039,11.6600018 50.0349974,12.1599968 50.565,12.8 C51.0950026,13.4400032 51.4899987,14.1949956 51.75,15.065 C52.0100013,15.9350043 52.14,16.8799949 52.14,17.9 C52.14,18.300002 52.1200002,18.6799982 52.08,19.04 C52.0399998,19.4000018 52.0000002,19.6699991 51.96,19.85 L43.05,19.85 C43.250001,20.9300054 43.6949965,21.7249974 44.385,22.235 C45.0750034,22.7450026 45.919995,23 46.92,23 C47.9800053,23 49.0499946,22.6700033 50.13,22.01 L51.6,24.68 C50.8399962,25.2000026 49.9950047,25.6099985 49.065,25.91 C48.1349954,26.2100015 47.2200045,26.36 46.32,26.36 Z M43.02,16.94 L48.39,16.94 C48.39,16.0999958 48.2000019,15.4200026 47.82,14.9 C47.4399981,14.3799974 46.8000045,14.12 45.9,14.12 C45.1999965,14.12 44.5850026,14.3499977 44.055,14.81 C43.5249973,15.2700023 43.1800008,15.9799952 43.02,16.94 Z M55.2,26 L55.2,11.12 L58.8,11.12 L59.1,13.01 L59.22,13.01 C59.8600032,12.409997 60.5599962,11.8850022 61.32,11.435 C62.0800038,10.9849977 62.9699949,10.76 63.99,10.76 C65.6100081,10.76 66.7849964,11.2899947 67.515,12.35 C68.2450037,13.4100053 68.61,14.8799906 68.61,16.76 L68.61,26 L64.2,26 L64.2,17.33 C64.2,16.2499946 64.0550014,15.510002 63.765,15.11 C63.4749986,14.709998 63.0100032,14.51 62.37,14.51 C61.8099972,14.51 61.330002,14.6349988 60.93,14.885 C60.529998,15.1350012 60.0900024,15.4899977 59.61,15.95 L59.61,26 L55.2,26 Z M87.36,26.36 C86.0199933,26.36 84.7650058,26.1450021 83.595,25.715 C82.4249942,25.2849978 81.4100043,24.6500042 80.55,23.81 C79.6899957,22.9699958 79.0150024,21.9250062 78.525,20.675 C78.0349975,19.4249937 77.79,17.9800082 77.79,16.34 C77.79,14.7199919 78.0399975,13.2750063 78.54,12.005 C79.0400025,10.7349936 79.7249956,9.6600044 80.595,8.78 C81.4650043,7.8999956 82.4799942,7.2300023 83.64,6.77 C84.8000058,6.3099977 86.0299935,6.08 87.33,6.08 C88.7500071,6.08 89.9699949,6.3399974 90.99,6.86 C92.0100051,7.3800026 92.8399968,7.9699967 93.48,8.63 L91.17,11.45 C90.6699975,11.0099978 90.1400028,10.6400015 89.58,10.34 C89.0199972,10.0399985 88.3200042,9.89 87.48,9.89 C86.7199962,9.89 86.0250032,10.0349985 85.395,10.325 C84.7649968,10.6150014 84.2200023,11.0299973 83.76,11.57 C83.2999977,12.1100027 82.9450012,12.7699961 82.695,13.55 C82.4449987,14.3300039 82.32,15.2099951 82.32,16.19 C82.32,18.2100101 82.7749955,19.7749945 83.685,20.885 C84.5950045,21.9950055 85.9699908,22.55 87.81,22.55 C88.210002,22.55 88.5999981,22.5000005 88.98,22.4 C89.3600019,22.2999995 89.6699988,22.150001 89.91,21.95 L89.91,18.59 L86.67,18.59 L86.67,14.99 L93.81,14.99 L93.81,23.99 C93.1299966,24.6500033 92.2300056,25.2099977 91.11,25.67 C89.9899944,26.1300023 88.7400069,26.36 87.36,26.36 Z M103.89,26.36 C102.949995,26.36 102.040004,26.1850017 101.16,25.835 C100.279996,25.4849983 99.5050033,24.9800033 98.835,24.32 C98.1649966,23.6599967 97.630002,22.8450048 97.23,21.875 C96.829998,20.9049952 96.63,19.8000062 96.63,18.56 C96.63,17.3199938 96.829998,16.2150048 97.23,15.245 C97.630002,14.2749952 98.1649966,13.4600033 98.835,12.8 C99.5050033,12.1399967 100.279996,11.6350018 101.16,11.285 C102.040004,10.9349982 102.949995,10.76 103.89,10.76 C104.830005,10.76 105.734996,10.9349982 106.605,11.285 C107.475004,11.6350018 108.244997,12.1399967 108.915,12.8 C109.585003,13.4600033 110.119998,14.2749952 110.52,15.245 C110.920002,16.2150048 111.12,17.3199938 111.12,18.56 C111.12,19.8000062 110.920002,20.9049952 110.52,21.875 C110.119998,22.8450048 109.585003,23.6599967 108.915,24.32 C108.244997,24.9800033 107.475004,25.4849983 106.605,25.835 C105.734996,26.1850017 104.830005,26.36 103.89,26.36 Z M103.89,22.79 C104.790005,22.79 105.469998,22.4100038 105.93,21.65 C106.390002,20.8899962 106.62,19.8600065 106.62,18.56 C106.62,17.2599935 106.390002,16.2300038 105.93,15.47 C105.469998,14.7099962 104.790005,14.33 103.89,14.33 C102.969995,14.33 102.285002,14.7099962 101.835,15.47 C101.384998,16.2300038 101.16,17.2599935 101.16,18.56 C101.16,19.8600065 101.384998,20.8899962 101.835,21.65 C102.285002,22.4100038 102.969995,22.79 103.89,22.79 Z M117.57,26 L112.56,11.12 L117,11.12 L118.92,18.14 C119.120001,18.8800037 119.314999,19.6349961 119.505,20.405 C119.695001,21.1750039 119.889999,21.9499961 120.09,22.73 L120.21,22.73 C120.390001,21.9499961 120.574999,21.1750039 120.765,20.405 C120.955001,19.6349961 121.149999,18.8800037 121.35,18.14 L123.3,11.12 L127.53,11.12 L122.67,26 L117.57,26 Z M136.5,26.36 C135.439995,26.36 134.450005,26.1850017 133.53,25.835 C132.609995,25.4849983 131.810003,24.9750034 131.13,24.305 C130.449997,23.6349966 129.920002,22.8200048 129.54,21.86 C129.159998,20.8999952 128.97,19.8000062 128.97,18.56 C128.97,17.359994 129.169998,16.2750049 129.57,15.305 C129.970002,14.3349951 130.494997,13.5150034 131.145,12.845 C131.795003,12.1749966 132.539996,11.6600018 133.38,11.3 C134.220004,10.9399982 135.089995,10.76 135.99,10.76 C137.050005,10.76 137.974996,10.9399982 138.765,11.3 C139.555004,11.6600018 140.214997,12.1599968 140.745,12.8 C141.275003,13.4400032 141.669999,14.1949956 141.93,15.065 C142.190001,15.9350043 142.32,16.8799949 142.32,17.9 C142.32,18.300002 142.3,18.6799982 142.26,19.04 C142.22,19.4000018 142.18,19.6699991 142.14,19.85 L133.23,19.85 C133.430001,20.9300054 133.874997,21.7249974 134.565,22.235 C135.255003,22.7450026 136.099995,23 137.1,23 C138.160005,23 139.229995,22.6700033 140.31,22.01 L141.78,24.68 C141.019996,25.2000026 140.175005,25.6099985 139.245,25.91 C138.314995,26.2100015 137.400005,26.36 136.5,26.36 Z M133.2,16.94 L138.57,16.94 C138.57,16.0999958 138.380002,15.4200026 138,14.9 C137.619998,14.3799974 136.980004,14.12 136.08,14.12 C135.379996,14.12 134.765003,14.3499977 134.235,14.81 C133.704997,15.2700023 133.360001,15.9799952 133.2,16.94 Z M145.38,26 L145.38,11.12 L148.98,11.12 L149.28,13.73 L149.4,13.73 C149.940003,12.7099949 150.589996,11.9600024 151.35,11.48 C152.110004,10.9999976 152.869996,10.76 153.63,10.76 C154.050002,10.76 154.394999,10.7849997 154.665,10.835 C154.935001,10.8850002 155.179999,10.9599995 155.4,11.06 L154.68,14.87 C154.399999,14.7899996 154.140001,14.7300002 153.9,14.69 C153.659999,14.6499998 153.380002,14.63 153.06,14.63 C152.499997,14.63 151.915003,14.829998 151.305,15.23 C150.694997,15.630002 150.190002,16.3399949 149.79,17.36 L149.79,26 L145.38,26 Z M157.32,26 L157.32,11.12 L160.92,11.12 L161.22,13.01 L161.34,13.01 C161.980003,12.409997 162.679996,11.8850022 163.44,11.435 C164.200004,10.9849977 165.089995,10.76 166.11,10.76 C167.730008,10.76 168.904996,11.2899947 169.635,12.35 C170.365004,13.4100053 170.73,14.8799906 170.73,16.76 L170.73,26 L166.32,26 L166.32,17.33 C166.32,16.2499946 166.175001,15.510002 165.885,15.11 C165.594999,14.709998 165.130003,14.51 164.49,14.51 C163.929997,14.51 163.450002,14.6349988 163.05,14.885 C162.649998,15.1350012 162.210002,15.4899977 161.73,15.95 L161.73,26 L157.32,26 Z M174.48,26 L174.48,11.12 L178.08,11.12 L178.38,13.04 L178.5,13.04 C179.120003,12.4199969 179.779996,11.8850022 180.48,11.435 C181.180003,10.9849977 182.019995,10.76 183,10.76 C184.060005,10.76 184.914997,10.9749978 185.565,11.405 C186.215003,11.8350022 186.729998,12.449996 187.11,13.25 C187.770003,12.5699966 188.464996,11.9850025 189.195,11.495 C189.925004,11.0049975 190.789995,10.76 191.79,10.76 C193.390008,10.76 194.564996,11.2949946 195.315,12.365 C196.065004,13.4350053 196.44,14.8999907 196.44,16.76 L196.44,26 L192.03,26 L192.03,17.33 C192.03,16.2499946 191.885001,15.510002 191.595,15.11 C191.304999,14.709998 190.840003,14.51 190.2,14.51 C189.459996,14.51 188.610005,14.9899952 187.65,15.95 L187.65,26 L183.24,26 L183.24,17.33 C183.24,16.2499946 183.095001,15.510002 182.805,15.11 C182.514999,14.709998 182.050003,14.51 181.41,14.51 C180.649996,14.51 179.810005,14.9899952 178.89,15.95 L178.89,26 L174.48,26 Z M206.85,26.36 C205.789995,26.36 204.800005,26.1850017 203.88,25.835 C202.959995,25.4849983 202.160003,24.9750034 201.48,24.305 C200.799997,23.6349966 200.270002,22.8200048 199.89,21.86 C199.509998,20.8999952 199.32,19.8000062 199.32,18.56 C199.32,17.359994 199.519998,16.2750049 199.92,15.305 C200.320002,14.3349951 200.844997,13.5150034 201.495,12.845 C202.145003,12.1749966 202.889996,11.6600018 203.73,11.3 C204.570004,10.9399982 205.439995,10.76 206.34,10.76 C207.400005,10.76 208.324996,10.9399982 209.115,11.3 C209.905004,11.6600018 210.564997,12.1599968 211.095,12.8 C211.625003,13.4400032 212.019999,14.1949956 212.28,15.065 C212.540001,15.9350043 212.67,16.8799949 212.67,17.9 C212.67,18.300002 212.65,18.6799982 212.61,19.04 C212.57,19.4000018 212.53,19.6699991 212.49,19.85 L203.58,19.85 C203.780001,20.9300054 204.224997,21.7249974 204.915,22.235 C205.605003,22.7450026 206.449995,23 207.45,23 C208.510005,23 209.579995,22.6700033 210.66,22.01 L212.13,24.68 C211.369996,25.2000026 210.525005,25.6099985 209.595,25.91 C208.664995,26.2100015 207.750004,26.36 206.85,26.36 Z M203.55,16.94 L208.92,16.94 C208.92,16.0999958 208.730002,15.4200026 208.35,14.9 C207.969998,14.3799974 207.330005,14.12 206.43,14.12 C205.729997,14.12 205.115003,14.3499977 204.585,14.81 C204.054997,15.2700023 203.710001,15.9799952 203.55,16.94 Z M215.73,26 L215.73,11.12 L219.33,11.12 L219.63,13.01 L219.75,13.01 C220.390003,12.409997 221.089996,11.8850022 221.85,11.435 C222.610004,10.9849977 223.499995,10.76 224.52,10.76 C226.140008,10.76 227.314996,11.2899947 228.045,12.35 C228.775004,13.4100053 229.14,14.8799906 229.14,16.76 L229.14,26 L224.73,26 L224.73,17.33 C224.73,16.2499946 224.585001,15.510002 224.295,15.11 C224.004999,14.709998 223.540003,14.51 222.9,14.51 C222.339997,14.51 221.860002,14.6349988 221.46,14.885 C221.059998,15.1350012 220.620002,15.4899977 220.14,15.95 L220.14,26 L215.73,26 Z M238.62,26.36 C237.699995,26.36 236.915003,26.2200014 236.265,25.94 C235.614997,25.6599986 235.085002,25.2700025 234.675,24.77 C234.264998,24.2699975 233.965001,23.6650036 233.775,22.955 C233.584999,22.2449965 233.49,21.4600043 233.49,20.6 L233.49,14.57 L231.45,14.57 L231.45,11.3 L233.73,11.12 L234.24,7.16 L237.9,7.16 L237.9,11.12 L241.47,11.12 L241.47,14.57 L237.9,14.57 L237.9,20.54 C237.9,21.3800042 238.074998,21.9849981 238.425,22.355 C238.775002,22.7250018 239.239997,22.91 239.82,22.91 C240.060001,22.91 240.304999,22.8800003 240.555,22.82 C240.805001,22.7599997 241.029999,22.6900004 241.23,22.61 L241.92,25.82 C241.519998,25.9400006 241.050003,26.0599994 240.51,26.18 C239.969997,26.3000006 239.340004,26.36 238.62,26.36 Z M2.31,56 L2.31,36.44 L9.03,36.44 C10.1100054,36.44 11.1199953,36.544999 12.06,36.755 C13.0000047,36.965001 13.8199965,37.3149976 14.52,37.805 C15.2200035,38.2950024 15.774998,38.9449959 16.185,39.755 C16.5950021,40.565004 16.8,41.5599941 16.8,42.74 C16.8,43.8800057 16.5950021,44.8699958 16.185,45.71 C15.774998,46.5500042 15.2200035,47.2399973 14.52,47.78 C13.8199965,48.3200027 13.0100046,48.7199987 12.09,48.98 C11.1699954,49.2400013 10.1900052,49.37 9.15,49.37 L6.72,49.37 L6.72,56 L2.31,56 Z M6.72,45.86 L8.88,45.86 C11.280012,45.86 12.48,44.8200104 12.48,42.74 C12.48,41.7199949 12.1600032,41.0000021 11.52,40.58 C10.8799968,40.1599979 9.960006,39.95 8.76,39.95 L6.72,39.95 L6.72,45.86 Z M19.83,56 L19.83,41.12 L23.43,41.12 L23.73,43.73 L23.85,43.73 C24.3900027,42.7099949 25.0399962,41.9600024 25.8,41.48 C26.5600038,40.9999976 27.3199962,40.76 28.08,40.76 C28.5000021,40.76 28.8449987,40.7849997 29.115,40.835 C29.3850013,40.8850002 29.6299989,40.9599995 29.85,41.06 L29.13,44.87 C28.8499986,44.7899996 28.5900012,44.7300002 28.35,44.69 C28.1099988,44.6499998 27.8300016,44.63 27.51,44.63 C26.9499972,44.63 26.3650031,44.829998 25.755,45.23 C25.144997,45.630002 24.640002,46.3399949 24.24,47.36 L24.24,56 L19.83,56 Z M38.16,56.36 C37.2199953,56.36 36.3100044,56.1850017 35.43,55.835 C34.5499956,55.4849983 33.7750033,54.9800033 33.105,54.32 C32.4349967,53.6599967 31.900002,52.8450049 31.5,51.875 C31.099998,50.9049951 30.9,49.8000062 30.9,48.56 C30.9,47.3199938 31.099998,46.2150048 31.5,45.245 C31.900002,44.2749952 32.4349967,43.4600033 33.105,42.8 C33.7750033,42.1399967 34.5499956,41.6350018 35.43,41.285 C36.3100044,40.9349982 37.2199953,40.76 38.16,40.76 C39.1000047,40.76 40.0049956,40.9349982 40.875,41.285 C41.7450044,41.6350018 42.5149967,42.1399967 43.185,42.8 C43.8550034,43.4600033 44.389998,44.2749952 44.79,45.245 C45.190002,46.2150048 45.39,47.3199938 45.39,48.56 C45.39,49.8000062 45.190002,50.9049951 44.79,51.875 C44.389998,52.8450049 43.8550034,53.6599967 43.185,54.32 C42.5149967,54.9800033 41.7450044,55.4849983 40.875,55.835 C40.0049956,56.1850017 39.1000047,56.36 38.16,56.36 Z M38.16,52.79 C39.0600045,52.79 39.7399977,52.4100038 40.2,51.65 C40.6600023,50.8899962 40.89,49.8600065 40.89,48.56 C40.89,47.2599935 40.6600023,46.2300038 40.2,45.47 C39.7399977,44.7099962 39.0600045,44.33 38.16,44.33 C37.2399954,44.33 36.5550023,44.7099962 36.105,45.47 C35.6549977,46.2300038 35.43,47.2599935 35.43,48.56 C35.43,49.8600065 35.6549977,50.8899962 36.105,51.65 C36.5550023,52.4100038 37.2399954,52.79 38.16,52.79 Z M53.73,56.36 C52.8099954,56.36 51.9750037,56.1800018 51.225,55.82 C50.4749963,55.4599982 49.8350027,54.9450034 49.305,54.275 C48.7749973,53.6049966 48.3650014,52.7900048 48.075,51.83 C47.7849985,50.8699952 47.64,49.7800061 47.64,48.56 C47.64,47.3399939 47.8149983,46.2500048 48.165,45.29 C48.5150017,44.3299952 48.9749972,43.5150034 49.545,42.845 C50.1150028,42.1749966 50.7749963,41.6600018 51.525,41.3 C52.2750037,40.9399982 53.0399961,40.76 53.82,40.76 C54.6600042,40.76 55.3499973,40.8999986 55.89,41.18 C56.4300027,41.4600014 56.9599974,41.8399976 57.48,42.32 L57.3,40.04 L57.3,34.97 L61.71,34.97 L61.71,56 L58.11,56 L57.81,54.53 L57.69,54.53 C57.1699974,55.0500026 56.5600035,55.4849983 55.86,55.835 C55.1599965,56.1850017 54.4500036,56.36 53.73,56.36 Z M54.87,52.76 C55.3500024,52.76 55.7849981,52.660001 56.175,52.46 C56.565002,52.259999 56.9399982,51.9100025 57.3,51.41 L57.3,45.32 C56.899998,44.9599982 56.4900021,44.7100007 56.07,44.57 C55.6499979,44.4299993 55.240002,44.36 54.84,44.36 C54.1399965,44.36 53.5200027,44.6949967 52.98,45.365 C52.4399973,46.0350033 52.17,47.0799929 52.17,48.5 C52.17,49.9800074 52.4049977,51.0599966 52.875,51.74 C53.3450024,52.4200034 54.0099957,52.76 54.87,52.76 Z M70.08,56.36 C68.4599919,56.36 67.2850036,55.8300053 66.555,54.77 C65.8249963,53.7099947 65.46,52.2400094 65.46,50.36 L65.46,41.12 L69.87,41.12 L69.87,49.79 C69.87,50.8700054 70.0199985,51.609998 70.32,52.01 C70.6200015,52.410002 71.0899968,52.61 71.73,52.61 C72.2900028,52.61 72.7599981,52.4800013 73.14,52.22 C73.5200019,51.9599987 73.9299978,51.5400029 74.37,50.96 L74.37,41.12 L78.78,41.12 L78.78,56 L75.18,56 L74.85,53.93 L74.76,53.93 C74.1199968,54.6900038 73.4350036,55.2849978 72.705,55.715 C71.9749963,56.1450021 71.1000051,56.36 70.08,56.36 Z M89.13,56.36 C88.0899948,56.36 87.1250045,56.1850017 86.235,55.835 C85.3449956,55.4849983 84.5700033,54.9800033 83.91,54.32 C83.2499967,53.6599967 82.7300019,52.8450049 82.35,51.875 C81.9699981,50.9049951 81.78,49.8000062 81.78,48.56 C81.78,47.3199938 81.9899979,46.2150048 82.41,45.245 C82.8300021,44.2749952 83.3949965,43.4600033 84.105,42.8 C84.8150036,42.1399967 85.6399953,41.6350018 86.58,41.285 C87.5200047,40.9349982 88.4999949,40.76 89.52,40.76 C90.4400046,40.76 91.2549965,40.9099985 91.965,41.21 C92.6750036,41.5100015 93.3099972,41.8899977 93.87,42.35 L91.8,45.2 C91.0999965,44.6199971 90.4300032,44.33 89.79,44.33 C88.7099946,44.33 87.8600031,44.7099962 87.24,45.47 C86.6199969,46.2300038 86.31,47.2599935 86.31,48.56 C86.31,49.8600065 86.6249969,50.8899962 87.255,51.65 C87.8850032,52.4100038 88.6799952,52.79 89.64,52.79 C90.1200024,52.79 90.5849978,52.685001 91.035,52.475 C91.4850023,52.2649989 91.909998,52.0100015 92.31,51.71 L94.05,54.59 C93.3099963,55.2300032 92.5100043,55.6849986 91.65,55.955 C90.7899957,56.2250013 89.9500041,56.36 89.13,56.36 Z M102.39,56.36 C101.469995,56.36 100.685003,56.2200014 100.035,55.94 C99.3849968,55.6599986 98.8550021,55.2700025 98.445,54.77 C98.034998,54.2699975 97.735001,53.6650036 97.545,52.955 C97.3549991,52.2449965 97.26,51.4600043 97.26,50.6 L97.26,44.57 L95.22,44.57 L95.22,41.3 L97.5,41.12 L98.01,37.16 L101.67,37.16 L101.67,41.12 L105.24,41.12 L105.24,44.57 L101.67,44.57 L101.67,50.54 C101.67,51.3800042 101.844998,51.9849982 102.195,52.355 C102.545002,52.7250018 103.009997,52.91 103.59,52.91 C103.830001,52.91 104.074999,52.8800003 104.325,52.82 C104.575001,52.7599997 104.799999,52.6900004 105,52.61 L105.69,55.82 C105.289998,55.9400006 104.820003,56.0599994 104.28,56.18 C103.739997,56.3000006 103.110004,56.36 102.39,56.36 Z M112.53,56.36 C111.549995,56.36 110.545005,56.1700019 109.515,55.79 C108.484995,55.4099981 107.590004,54.9100031 106.83,54.29 L108.81,51.53 C109.490003,52.0500026 110.139997,52.4399987 110.76,52.7 C111.380003,52.9600013 112.009997,53.09 112.65,53.09 C113.310003,53.09 113.789998,52.9800011 114.09,52.76 C114.390001,52.5399989 114.54,52.230002 114.54,51.83 C114.54,51.5899988 114.455001,51.375001 114.285,51.185 C114.114999,50.9949991 113.885001,50.8200008 113.595,50.66 C113.304999,50.4999992 112.980002,50.3550007 112.62,50.225 C112.259998,50.0949994 111.890002,49.9500008 111.51,49.79 C111.049998,49.6099991 110.590002,49.4000012 110.13,49.16 C109.669998,48.9199988 109.250002,48.6250018 108.87,48.275 C108.489998,47.9249983 108.180001,47.5150024 107.94,47.045 C107.699999,46.5749977 107.58,46.0300031 107.58,45.41 C107.58,44.7299966 107.714999,44.1000029 107.985,43.52 C108.255001,42.9399971 108.639997,42.450002 109.14,42.05 C109.640002,41.649998 110.239996,41.3350012 110.94,41.105 C111.640003,40.8749988 112.419996,40.76 113.28,40.76 C114.420006,40.76 115.419996,40.9549981 116.28,41.345 C117.140004,41.7350019 117.889997,42.1699976 118.53,42.65 L116.55,45.29 C116.009997,44.889998 115.480003,44.5800011 114.96,44.36 C114.439997,44.1399989 113.920003,44.03 113.4,44.03 C112.279994,44.03 111.72,44.4199961 111.72,45.2 C111.72,45.4400012 111.799999,45.6449992 111.96,45.815 C112.120001,45.9850008 112.334999,46.1399993 112.605,46.28 C112.875001,46.4200007 113.184998,46.5549994 113.535,46.685 C113.885002,46.8150007 114.249998,46.9499993 114.63,47.09 C115.110002,47.2700009 115.584998,47.4749988 116.055,47.705 C116.525002,47.9350012 116.954998,48.2199983 117.345,48.56 C117.735002,48.9000017 118.049999,49.3149976 118.29,49.805 C118.530001,50.2950024 118.65,50.8799966 118.65,51.56 C118.65,52.2400034 118.520001,52.8699971 118.26,53.45 C117.999999,54.0300029 117.610003,54.5349978 117.09,54.965 C116.569997,55.3950021 115.930004,55.7349988 115.17,55.985 C114.409996,56.2350012 113.530005,56.36 112.53,56.36 Z" id="Open-Government-Prod" fill="#393939"></path>
    </g>
</svg>